<?xml version="1.0" standalone="no"?>
<!DOCTYPE svg PUBLIC "-//W3C//DTD SVG 1.1//EN" "http://www.w3.org/Graphics/SVG/1.1/DTD/svg11.dtd" >
<!--
2013-9-30: Created.
-->
<svg>
<metadata>
Created by iconfont
</metadata>
<defs>

<font id="iconfont" horiz-adv-x="1024" >
  <font-face
    font-family="iconfont"
    font-weight="500"
    font-stretch="normal"
    units-per-em="1024"
    ascent="896"
    descent="-128"
  />
    <missing-glyph />
    
    <glyph glyph-name="jian" unicode="&#58885;" d="M507.904 843.776q95.232 0 179.2-36.352t145.92-98.304 98.304-145.408 36.352-178.688-36.352-179.2-98.304-145.92-145.92-98.304-179.2-36.352-178.688 36.352-145.408 98.304-98.304 145.92-36.352 179.2 36.352 178.688 98.304 145.408 145.408 98.304 178.688 36.352zM736.256 322.56q30.72 0 55.296 15.872t24.576 47.616q0 30.72-24.576 45.568t-55.296 14.848l-452.608 0q-30.72 0-56.32-14.848t-25.6-45.568q0-31.744 25.6-47.616t56.32-15.872l452.608 0z"  horiz-adv-x="1024" />

    
    <glyph glyph-name="xiangshangshouqi" unicode="&#58948;" d="M512 281.344 857.344-64 945.344 24 512 457.344 78.656 24 166.656-63.872ZM512 655.936 857.344 310.656 945.344 398.656 512 832 78.656 398.656 166.656 310.656Z"  horiz-adv-x="1024" />

    
    <glyph glyph-name="icon" unicode="&#58907;" d="M511.487835 747.611527c246.665913 0 447.354678-200.660112 447.354678-447.355701 0-246.694565-200.688765-447.354678-447.354678-447.354678-246.695588 0-447.355701 200.660112-447.355701 447.354678C64.132134 546.951415 264.792247 747.611527 511.487835 747.611527L511.487835 747.611527 511.487835 747.611527zM236.695329-13.581951c-0.217964 14.062274 8.16496 27.439956 22.062482 32.929993 22.635533 8.92937 78.691223 35.112706 148.290371 47.51006L407.048181 81.683762C337.450057 149.999684 296.383756 278.00301 296.383756 374.715679c0 138.022517 71.920006 217.179344 197.547215 217.179344 128.959094 0 209.233372-81.20344 209.233372-217.179344 0-46.718021-17.637706-200.087061-87.265506-284.374746l0-18.621103c34.814923-8.600889 106.926288-27.197432 154.271596-43.960211 16.384156-5.817496 23.290449-22.581298 20.231787-39.101553 85.980233 76.53614 139.66083 187.69073 139.66083 311.598784 0 230.340085-187.852412 417.757592-418.138262 417.757592-230.367715 0-417.97658-187.417507-417.97658-417.757592C93.948207 175.17404 149.266094 63.06266 236.695329-13.581951L236.695329-13.581951 236.695329-13.581951zM236.695329-13.581951"  horiz-adv-x="1024" />

    
    <glyph glyph-name="zhanghaoanquanlast" unicode="&#58939;" d="M972.638893 652.167463c-41.061445 2.997903-82.322546 11.130535-117.718897 23.096551-11.464318 3.631681-22.931707 7.663697-34.462577 12.031544-24.331343 7.567453-57.427048 22.566184-94.985821 43.929317-0.401359 0.197608-0.803741 0.431051-1.19998 0.664494-8.835009 5.033365-17.865579 10.400513-27.063039 16.098372-12.398091 7.498854-24.667174 15.498382-36.928066 23.829645-0.466887 0.336855-0.932749 0.633778-1.401684 0.969609-8.79815 5.998878-17.56456 12.195364-26.26237 18.628365-5.664071 4.100616-11.333262 8.466415-16.998357 12.798426-4.264435 3.299946-8.530919 6.399213-12.79945 9.797451-31.195395 24.597551-61.989431 52.195052-90.821725 81.925283-28.827174-29.730231-59.62633-57.327733-90.820701-81.925283-4.264435-3.398238-8.532966-6.497505-12.79945-9.797451-5.667143-4.332011-11.332238-8.69781-16.999381-12.798426-8.698834-6.434025-17.46422-12.631534-26.261346-18.628365-0.465863-0.335831-0.935821-0.633778-1.40066-0.969609-12.266011-8.331263-24.529975-16.330791-36.927042-23.829645-9.201556-5.697859-18.232125-11.066031-27.063039-16.098372-0.401359-0.233443-0.801693-0.465863-1.198957-0.664494-37.562868-21.363132-70.660621-36.361863-94.988892-43.929317-11.532917-4.367847-22.997235-8.398839-34.463601-12.031544-35.394303-11.966016-76.655403-20.098648-117.716849-23.096551 0 0-0.0686 0-0.099316 0 1.197933-19.431082 2.430677-45.196873 3.864101-73.093346 0.233443 0 0.500674 0 0.766882 0.033788 6.932651-104.119801 26.697516-201.042792 56.525015-288.06492 1.334108-3.798573 2.466513-7.766085 3.800621-11.532917 0.633778-1.767207 1.365848-3.397214 2.00065-5.165445 71.386547-194.542215 195.373601-336.093828 344.389256-387.98479l0-0.533438c19.698313-6.865076 36.295312-11.099819 49.391685-13.762915 13.102516 2.66412 29.697467 6.89784 49.392709 13.762915l0 0.533438c149.016679 51.891985 273.003733 193.443598 344.393352 387.986838 0.632754 1.767207 1.366872 3.397214 1.999626 5.165445 1.334108 3.764785 2.46856 7.733321 3.799597 11.532917 29.829547 87.021104 49.595436 183.944095 56.526039 288.063896 0.267231-0.032764 0.534462-0.032764 0.766882-0.032764 1.4324 27.895449 2.665144 53.66124 3.867172 73.092322C972.707493 652.167463 972.638893 652.167463 972.638893 652.167463zM894.717982 591.491663c-6.84767-160.553692-47.007082-307.78883-116.135987-425.790316-33.499112-57.183366-72.88038-105.718069-117.048259-144.257712-44.942952-39.213353-93.923039-67.261359-145.583629-83.36485l-1.95048-0.608181c0 0-1.988363 0.597942-2.003722 0.602038-0.01843-0.005119-2.007817-0.59999-2.007817-0.59999l-1.946385 0.606133c-51.659566 16.103491-100.640677 44.151497-145.582605 83.36485-44.168903 38.539644-83.549147 87.074346-117.049283 144.257712-69.128905 118.001486-109.288318 265.237648-116.137011 425.790316l-0.236515 5.54735 5.411174 1.242983c124.074083 28.504654 251.788038 97.64175 369.332876 199.938032l8.214542 7.140498 8.212494-7.13845c117.545862-102.297305 245.258793-171.435425 369.335948-199.941103l5.411174-1.242983L894.717982 591.491663zM477.13504 175.006314c-5.885228 0-11.401862 2.250475-15.535241 6.335733l-15.876191 15.616127c-0.198632 0.197608-0.410573 0.425932-0.622515 0.653232l-0.159724 0.170987L271.847267 368.60247c-4.089353 4.041231-6.344948 9.423737-6.345971 15.148217 0 5.726528 2.255595 11.111081 6.353139 15.162551l15.807592 15.588483c4.149762 4.091401 9.677658 6.344948 15.562886 6.344948 5.892395 0 11.433602-2.258666 15.604865-6.358258l158.289906-156.271851 269.055674 265.509998c4.140547 4.092425 9.658204 6.341876 15.544456 6.341876 5.890347 0 11.420291-2.253547 15.571077-6.345971l15.765613-15.588483c4.137475-4.067852 6.405356-9.432952 6.409452-15.131835 0.003072-5.715265-2.268905-11.103914-6.397165-15.173814L492.702022 181.34819C488.555332 177.259861 483.026412 175.006314 477.13504 175.006314z"  horiz-adv-x="1024" />

    
    <glyph glyph-name="zhongqi" unicode="&#59035;" d="M617.472 802.08l0-72.512c192.704-47.488 336.192-221.312 336.192-428.48 0-243.584-198.08-441.664-441.664-441.664-243.52 0-441.664 198.08-441.664 441.664 0 207.168 143.552 380.928 336.192 428.48L406.528 802.08C174.656 753.312 0 547.296 0 301.088c0-282.304 229.76-512 512-512s512 229.76 512 512C1024 547.296 849.344 753.312 617.472 802.08zM476.864 810.912l70.336 0 0-509.824-70.336 0 0 509.824Z"  horiz-adv-x="1024" />

    
    <glyph glyph-name="54" unicode="&#58935;" d="M515.254-57.842c-197.716 0-378.822 132.747-431.274 332.764-62.316 237.808 80.437 481.978 318.22 544.295 115.204 30.222 235.252 13.707 338.021-46.372 102.797-60.105 176.044-156.63 206.233-271.808 5.851-22.332-7.509-45.175-29.834-51.024-22.271-5.89-45.168 7.497-51.030 29.828-24.531 93.579-84.037 172.011-167.555 220.839-83.506 48.84-181.024 62.221-274.637 37.684-193.2-50.636-309.193-249.027-258.563-442.246 50.663-193.166 249.012-309.166 442.199-258.476 136.155 35.651 240.122 148.25 264.896 286.868 4.054 22.728 25.916 37.889 48.486 33.789 22.735-4.062 37.862-25.768 33.794-48.496-30.473-170.574-158.44-309.145-325.995-353.019-37.741-9.897-75.655-14.625-112.96-14.625zM721.609 346.189v0l-322.43 0.014c-23.088 0-41.794 18.712-41.794 41.794 0 23.080 18.72 41.793 41.794 41.793v0l322.43-0.013c23.088 0 41.794-18.713 41.794-41.794s-18.72-41.794-41.794-41.794zM336.719 346.161c-10.694 0-21.387 4.081-29.549 12.245-16.326 16.319-16.326 42.779 0 59.098l191.567 191.567c16.326 16.326 42.773 16.326 59.099 0 16.325-16.319 16.325-42.779 0-59.098l-191.568-191.567c-8.162-8.163-18.856-12.245-29.549-12.245zM528.286 154.676c-10.693 0-21.385 4.081-29.549 12.237l-191.581 191.555c-16.325 16.319-16.325 42.786 0 59.105 16.298 16.326 42.773 16.319 59.099 0.007l191.581-191.554c16.325-16.319 16.325-42.788 0-59.106-8.15-8.162-18.856-12.244-29.55-12.244z"  horiz-adv-x="1024" />

    
    <glyph glyph-name="delete3e" unicode="&#58994;" d="M768 512c-19.2 0-32-12.8-32-32l0-377.6c0-25.6-19.2-38.4-38.4-38.4L326.4 64c-25.6 0-38.4 19.2-38.4 38.4L288 480C288 499.2 275.2 512 256 512S224 499.2 224 480l0-377.6c0-57.6 44.8-102.4 102.4-102.4l364.8 0c57.6 0 102.4 44.8 102.4 102.4L793.6 480C800 499.2 787.2 512 768 512zM460.8 160l0 320C460.8 499.2 448 512 435.2 512S396.8 499.2 396.8 480l0-320c0-19.2 12.8-32 32-32S460.8 140.8 460.8 160zM627.2 160l0 320C627.2 499.2 608 512 588.8 512S563.2 499.2 563.2 480l0-320C563.2 140.8 576 128 588.8 128S627.2 140.8 627.2 160zM832 640l-160 0L672 684.8C672 729.6 633.6 768 588.8 768L435.2 768C390.4 768 352 729.6 352 684.8L352 640 192 640C172.8 640 160 627.2 160 608S172.8 576 192 576l640 0c19.2 0 32 12.8 32 32S851.2 640 832 640zM416 684.8C416 697.6 422.4 704 435.2 704l153.6 0c12.8 0 19.2-6.4 19.2-19.2L608 640l-192 0L416 684.8z"  horiz-adv-x="1024" />

    
    <glyph glyph-name="start1" unicode="&#58925;" d="M888.23433326 814.16921825L180.42805699 384.56180564l708.76863602-429.60624755-0.96119466 859.20550458M888.23433326 875.73111521c10.46129323 0.0524288 20.77345565-2.60046849 29.91354311-7.69654783 19.5559424-10.8679077 31.67165554-31.49106745 31.65650944-53.87350471l0.96235976-859.20550458c0.0151461-22.36729117-12.11571314-42.99045091-31.65767452-53.87350471-9.13892238-5.09607936-19.44991971-7.75596715-29.91354312-7.69654784-11.48307229 0-22.72730226 3.18650595-32.4988655 9.22979897L147.95132811 332.22155204c-28.90574507 17.91783367-37.81281565 55.87278962-19.90197248 84.77154419 5.01335837 8.08685113 11.82211186 14.89676971 19.90197248 19.90197247l707.78530474 429.60624755c9.75525205 6.04329301 21.01346304 9.24494507 32.4988655 9.23678948l0 0L888.23549835 875.73111521zM88.90717863 877.12222605c-17.00091221 0-30.78502627-13.78411406-30.78502628-30.78502627l0-923.54962319c0-17.00091221 13.78411406-30.78502627 30.78502628-30.78502628 17.00091221 0 30.78502627 13.78411406 30.78502628 30.78502628l0 923.54962319C119.69220491 863.33811199 105.90809085 877.12222605 88.90717863 877.12222605z"  horiz-adv-x="1024" />

    
    <glyph glyph-name="shenqingshenpi" unicode="&#58926;" d="M357.25756836 339.99975586000005l-0.08239747-0.24719239c-0.08239747-0.41198731-0.24719239-0.82397461-0.57678222-1.40075683L356.26879883 337.85742187000005c-0.32958984-0.41198731-0.49438477-0.65917969-0.57678223-0.90637207L313.42211914 181.96142578c-2.14233398-7.91015625 0.08239747-16.23229981 5.93261719-22.24731445 4.28466797-4.11987305 10.21728516-6.42700195 16.23229981-6.42700196 1.97753906 0 3.95507813 0.24719239 5.93261718 0.74157716l155.8959961 42.02270508 0.24719238-0.08239747 0.32958984 0.08239747c0.65917969 0.16479492 0.98876953 0.32958984 1.4831543 0.82397461l411.82250976 411.82250975c11.45324708 11.45324708 17.79785156 27.35595703 17.79785157 44.65942384 0 19.69299317-8.40454102 39.30358887-22.98889161 53.80554199l-38.97399902 38.97399902c-14.66674805 14.66674805-34.35974122 22.98889161-54.05273437 22.9888916-17.22106934 0-33.04138184-6.3446045-44.65942383-17.79785156L357.42236328 340.16455078 357.25756836 339.99975586000005zM835.08044434 714.00183106l38.97399902-38.97399903c4.69665528-4.69665528 7.41577148-10.95886231 7.41577148-17.22106934-0.24719239-5.60302734-2.05993653-10.21728516-5.52062988-13.67797851L832.44372559 600.70532227l-71.27380372 72.42736816 42.76428224 42.68188476 0 0C811.67956543 723.47753906 826.18151856 722.65356445 835.08044434 714.00183106zM421.93957519 333.73754883000004l302.23388673 302.31628418 71.35620116-72.50976563L493.79016113 261.88696288999995 421.93957519 333.73754883000004zM367.72204589 208.24621581999997l24.55444337 90.63720704 65.83557129-65.91796875L367.72204589 208.24621581999997zM899.35046387 479.74584961c-13.67797852 0-24.80163575-11.20605469-24.80163575-25.04882813l0-383.97216796c0-22.08251953-17.96264648-40.04516602-40.04516601-40.04516602L184.88208008 30.6796875c-22.08251953 0-40.04516602 17.96264648-40.04516602 40.04516602L144.83691406 697.52233887c0 22.08251953 17.96264648 40.04516602 40.04516602 40.04516601l418.33190918 0c13.67797852 0 24.80163575 11.12365723 24.80163574 24.80163574 0 13.67797852-11.12365723 24.80163575-24.80163575 24.80163574l-422.6989746 0C133.38366699 787.17077637 94.98645019 748.85595703 94.98645019 701.64221192l1e-8-635.36682129c0-47.13134766 38.3972168-85.52856445 85.52856445-85.52856446l658.10852051 0c47.13134766 0 85.52856445 38.3972168 85.52856445 85.52856446L924.15209961 454.94421387C924.15209961 468.62219239 913.02844239 479.74584961 899.35046387 479.74584961z"  horiz-adv-x="1024" />

    
    <glyph glyph-name="weibiaoti11" unicode="&#58889;" d="M896 311.467c-38.4 0-72.533 34.133-72.533 72.533s34.133 72.533 72.533 72.533c38.4 0 72.533-34.133 72.533-72.533s-34.133-72.533-72.533-72.533zM896 648.533h-529.067c-38.4 0-72.533 34.133-72.533 72.533s34.133 72.533 72.533 72.533l529.067 0c38.4 0 72.533-34.133 72.533-72.533s-34.133-72.533-72.533-72.533zM128 648.533c-38.4 0-72.533 34.133-72.533 72.533s34.133 72.533 72.533 72.533c38.4 0 72.533-34.133 72.533-72.533s-34.133-72.533-72.533-72.533zM128 456.533h529.067c38.4 0 72.533-34.133 72.533-72.533s-34.133-72.533-72.533-72.533h-529.067c-38.4 0-72.533 34.133-72.533 72.533s34.133 72.533 72.533 72.533zM128 119.467c38.4 0 72.533-34.133 72.533-72.533s-34.133-72.533-72.533-72.533c-38.4 0-72.533 34.133-72.533 72.533 0 42.667 34.133 72.533 72.533 72.533zM366.933 119.467h529.067c38.4 0 72.533-34.133 72.533-72.533s-34.133-72.533-72.533-72.533l-529.067-0c-38.4 0-72.533 34.133-72.533 72.533 0 42.667 34.133 72.533 72.533 72.533z"  horiz-adv-x="1024" />

    
    <glyph glyph-name="huifuzhixing" unicode="&#59120;" d="M512-128c-281.6 0-512 230.4-512 512s230.4 512 512 512 512-230.4 512-512-230.4-512-512-512zM512 838.4c-249.6 0-454.4-204.8-454.4-454.4s204.8-454.4 454.4-454.4 454.4 204.8 454.4 454.4-204.8 454.4-454.4 454.4zM512 563.2l320-179.2-320-179.2v358.4zM384 576h64v-384h-64v384z"  horiz-adv-x="1024" />

    
    <glyph glyph-name="shenglvehao" unicode="&#58991;" d="M236.24704 605.96224c-130.49856 0-236.24704-105.84064-236.24704-236.47232 0-130.56 105.74848-236.50304 236.24704-236.50304s236.24704 105.9328 236.24704 236.50304C472.50432 500.11136 366.75584 605.96224 236.24704 605.96224zM1024 605.96224c-130.49856 0-236.24704-105.84064-236.24704-236.47232 0-130.56 105.74848-236.50304 236.24704-236.50304 130.49856 0 236.25728 105.9328 236.25728 236.50304C1260.25728 500.11136 1154.49856 605.96224 1024 605.96224zM1811.75296 605.96224c-130.49856 0-236.24704-105.84064-236.24704-236.47232 0-130.56 105.74848-236.50304 236.24704-236.50304s236.2368 105.9328 236.2368 236.50304C2048.01024 500.11136 1942.26176 605.96224 1811.75296 605.96224z"  horiz-adv-x="2048" />

    
    <glyph glyph-name="yidu" unicode="&#58898;" d="M512.00307 365.094418l400.88532-423.452291L111.110587-58.357873 512.00307 365.094418 512.00307 365.094418zM512.00307 826.358897 69.638033 494.589724l0-509.208421 302.56606 322.479599L147.826813 484.116185l364.176256 273.125541 364.162954-273.132704L651.802046 307.805644l302.55992-319.021847L954.361967 494.589724 512.00307 826.358897 512.00307 826.358897zM512.00307 826.358897"  horiz-adv-x="1024" />

    
    <glyph glyph-name="yuandianzhong" unicode="&#59440;" d="M480 416m-288 0a4.5 4.5 0 1 0 576 0 4.5 4.5 0 1 0-576 0Z"  horiz-adv-x="1024" />

    
    <glyph glyph-name="jinyong" unicode="&#59006;" d="M507.73333333-126.29333333c-279.04 0-506.02666667 226.13333333-506.02666666 506.02666666S228.69333333 885.76 507.73333333 885.76s506.02666667-226.13333333 506.02666667-506.02666667S786.77333333-126.29333333 507.73333333-126.29333333zM507.73333333 784.21333333c-223.57333333 0-404.48-180.90666667-404.48-404.48 0-223.57333333 180.90666667-404.48 404.48-404.48s404.48 180.90666667 404.48 404.48C912.21333333 603.30666667 731.30666667 784.21333333 507.73333333 784.21333333zM709.97333333 329.38666666999995L305.49333333 329.38666666999995c-28.16 0-50.34666667 23.04-50.34666666 50.34666666 0 28.16 23.04 50.34666667 50.34666666 50.34666667l404.48 0c28.16 0 50.34666667-23.04 50.34666667-50.34666667C760.32 351.57333332999997 738.13333333 329.38666666999995 709.97333333 329.38666666999995z"  horiz-adv-x="1024" />

    
    <glyph glyph-name="qiyong" unicode="&#59008;" d="M507.73333333-126.29333333c-279.04 0-506.02666667 226.13333333-506.02666666 506.02666666S228.69333333 885.76 507.73333333 885.76s506.02666667-226.13333333 506.02666667-506.02666667S786.77333333-126.29333333 507.73333333-126.29333333zM507.73333333 784.21333333c-223.57333333 0-404.48-180.90666667-404.48-404.48 0-223.57333333 180.90666667-404.48 404.48-404.48s404.48 180.90666667 404.48 404.48C912.21333333 603.30666667 731.30666667 784.21333333 507.73333333 784.21333333zM406.18666667 581.9733333300001l303.78666666-202.24L406.18666667 177.49333333000004 406.18666667 581.9733333300001z"  horiz-adv-x="1024" />

    
    <glyph glyph-name="ai-list" unicode="&#58896;" d="M192 672c0-35.36-28.64-64-64-64h-64c-35.36 0-64 28.64-64 64v64c0 35.36 28.64 64 64 64h64c35.36 0 64-28.64 64-64v-64zM192 352c0-35.328-28.64-64-64-64h-64c-35.36 0-64 28.672-64 64v64c0 35.36 28.64 64 64 64h64c35.36 0 64-28.64 64-64v-64zM192 32c0-35.328-28.64-64-64-64h-64c-35.36 0-64 28.672-64 64v64c0 35.36 28.64 64 64 64h64c35.36 0 64-28.64 64-64v-64zM1024 672c0-35.36-28.64-64-64-64h-576c-35.36 0-64 28.64-64 64v64c0 35.36 28.64 64 64 64h576c35.36 0 64-28.64 64-64v-64zM1024 352c0-35.328-28.64-64-64-64h-576c-35.36 0-64 28.672-64 64v64c0 35.36 28.64 64 64 64h576c35.36 0 64-28.64 64-64v-64zM1024 32c0-35.328-28.64-64-64-64h-576c-35.36 0-64 28.672-64 64v64c0 35.36 28.64 64 64 64h576c35.36 0 64-28.64 64-64v-64z"  horiz-adv-x="1024" />

    
    <glyph glyph-name="yingyong2" unicode="&#59075;" d="M777.455349-63.009823 248.659825-63.009823c-101.462856 0-183.992501 82.5716-183.992501 184.077435L64.667324 649.821181c0 101.461833 82.529645 183.992501 183.992501 183.992501l528.794501 0c101.461833 0 183.993524-82.529645 183.993524-183.992501l0-528.753569C961.448874 19.5628 878.917182-63.009823 777.455349-63.009823zM248.659825 791.109068c-77.901231 0-141.28891-63.387679-141.28891-141.28891l0-528.752546c0-77.94114 63.387679-141.371798 141.28891-141.371798l528.794501 0c77.900208 0 141.287887 63.430658 141.287887 141.371798L918.742213 649.821181c0 77.900208-63.387679 141.287887-141.287887 141.287887L248.659825 791.109068 248.659825 791.109068zM224.821907 222.957187 486.690056 65.401802 486.690056 374.103606 224.821907 531.663084ZM503.710708 703.436286 256.766456 575.687764 512.343319 414.860868 767.87925 546.14389ZM541.089014 375.536234 541.089014 66.83443 796.770254 198.142012 796.770254 198.142012 796.770254 506.825396Z"  horiz-adv-x="1024" />

    
    <glyph glyph-name="bangzhu" unicode="&#58917;" d="M514.706-96c-264.676 0-480 215.324-480 480s215.324 480 480 480c264.654 0 480-215.324 480-480s-215.346-480-480-480zM514.706 822.262c-241.68 0-438.284-196.604-438.284-438.262s196.604-438.284 438.262-438.284c241.658 0 438.262 196.626 438.262 438.284s-196.604 438.262-438.24 438.262zM523.891 640.844c-110.771 0-172.604-68.444-173.367-176.858l48.109 0c-1.527 78.654 39.709 136.364 122.967 136.364 59.542 0 109.178-41.978 109.178-103.069 0-39.709-21.382-71.782-49.636-98.531-57.993-53.847-74.269-79.156-77.214-152.924l48.72 0c2.88 66.873 1.374 65.542 59.804 123.927 38.946 36.654 66.436 73.331 66.436 129.84-0.022 88.56-70.276 141.251-154.996 141.251zM525.724 158.509c-24.087 0-43.636-19.549-43.636-43.614 0-24.087 19.549-43.636 43.636-43.636 24.087 0 43.636 19.549 43.636 43.636 0 24.066-19.549 43.614-43.636 43.614z"  horiz-adv-x="1027" />

    
    <glyph glyph-name="yincang" unicode="&#59057;" d="M1008.95730929 385.53136369l-0.16161404 0c-38.09730726 98.22452571-101.93503615 182.62836146-182.75950855 244.00080662l44.18434531 40.01681109c13.16495841 11.93033008 14.13464525 32.23281975 2.14205435 45.35671282l-4.44704834 4.85373403c-11.97139542 13.12389308-32.35469407 14.09490421-45.51832688 2.16324983l-57.59172543-52.19088718c-75.30440974 42.28206274-161.36545773 66.28579139-252.82601838 66.28579139-224.84154053 0-417.10583517-145.02782033-496.79768237-350.4862186l-0.14174417 0c0.02119547-0.08080767 0.04106534-0.1205487 0.08080766-0.20135636-0.03974103-0.04106534-0.05961219-0.12187301-0.08080766-0.16293966l0.14174417 0c36.51957839-94.87831127 96.67726508-176.9758287 172.79107323-238.04491567l-53.80835578-48.77313783c-13.16495841-11.93165439-14.13464525-32.23281975-2.16324983-45.33684167l4.44837268-4.89347505c11.97139542-13.1040219 32.35469407-14.07370875 45.53819803-2.14337868l65.67907366 59.53109912c77.97369845-46.79137322 168.15988975-73.52400148 264.31257038-73.52400148 224.87995726 0 417.12438202 146.11938147 496.81622792 353.18464998l0.16161404 0c-0.03974103 0.04106534-0.05961219 0.12187301-0.08080767 0.16293964C1008.8976971 385.41081499 1008.91756827 385.45055602 1008.95730929 385.53136369L1008.95730929 385.53136369zM88.56536658 385.33000733c75.40508727 165.72374995 236.40757459 280.54025618 423.41410075 280.54025618 70.79377626 0 137.82802694-16.46083474 197.92477714-45.88262159l-98.416608-89.15556795c-28.43223015 19.02812031-62.66536139 30.10931225-99.48962229 30.10931226-98.71996752 0-178.75623697-79.71171707-178.75623697-178.07798694 0-30.65641648 7.76544446-59.49135807 21.47485848-84.68732412l-114.47340699-103.69424893C175.55768469 243.21522174999996 123.10318033 308.89429671000005 88.56536658 385.33000733L88.56536658 385.33000733zM619.75911853 382.86207498c0-59.24893637-48.26842326-107.33455011-107.75978134-107.33455012-21.37418096 0-41.29118043 6.18771558-58.0355035 16.90593711l153.92456696 139.44549686C615.49223106 417.19853365 619.75911853 400.53634256 619.75911853 382.86207498L619.75911853 382.86207498zM404.26075134 382.86207498c0 59.29927579 48.22735662 107.36501836 107.73858585 107.36501835 15.77331063 0 30.75709403-3.37668269 44.26515299-9.44385088L410.00336583 348.28319457C406.28225699 359.12328912 404.26075134 370.77013084 404.26075134 382.86207498L404.26075134 382.86207498zM511.97946733 102.71658176000005c-75.44615391 0-146.64529022 18.84663511-209.71601297 52.25182368l98.07350875 88.85220972c30.5742845-24.42763427 69.40018121-39.02725307 111.66237408-39.02725307 98.71996752 0 178.75623697 79.71171707 178.75623698 178.06871289 0 36.03473497-10.75796256 69.57106932-29.23897734 97.61780927l112.18695853 101.61313109c69.29950367-49.03675502 125.41285345-116.98108037 161.73107677-196.76300801C860.00835067 218.38222612000004 699.00586335 102.71658176000005 511.97946733 102.71658176000005L511.97946733 102.71658176000005zM511.97946733 102.71658176000005"  horiz-adv-x="1024" />

    
    <glyph glyph-name="dianhua" unicode="&#59212;" d="M718.498651 52.404917c-22.716898 0-45.740781 2.865194-68.45768 8.493255-53.824723 13.405016-106.11452 33.973019-155.334466 61.192365C442.92835 150.640152 395.8573 185.94344 354.618967 226.874788l-0.204657 0.204657c-40.931348 41.238333-76.132307 88.309383-104.784251 140.087539-27.219346 49.219946-47.787349 101.509743-61.192365 155.436794-12.995703 52.08514-10.949136 106.421505 5.730389 152.878585 17.088838 47.378035 47.07105 80.225442 82.476666 90.048966 15.451584 4.297792 40.522035 5.116419 72.448486-15.246927 34.791646-22.205256 70.606575-65.89947 106.421505-129.752373l0.102328-0.102328c9.107225-16.270211 16.781853-34.280004 12.279404-55.359648-3.376836-15.758569-12.279404-28.549615-25.684421-47.787349-8.493255-12.177076-19.033077-27.424003-32.02878-48.503647-9.004897-14.632957 5.01409-42.875587 13.302688-54.336365l0.716299-0.920955 0.511642-0.818627c0.204657-0.409313 24.661137-38.373139 50.8572-64.773858l0 0c26.196063-26.298391 64.159888-50.447886 64.569202-50.652543l1.125612-0.716299 0.818627-0.61397c11.051464-7.981613 39.805736-22.307585 54.336365-13.507345 21.284301 12.995703 36.4289 23.637854 48.708304 32.233437 19.135405 13.405016 31.824123 22.205256 47.582692 25.582093 21.079644 4.502448 38.987109-3.274508 55.25732-12.381733 63.852903-35.81493 107.649445-71.527531 129.854702-106.421505 20.261017-31.721795 19.544719-56.792245 15.349256-72.243829l0-0.204657c-9.823524-35.303288-42.67093-65.387829-90.048966-82.476666C776.723494 57.112022 747.969222 52.404917 718.498651 52.404917zM399.336464 271.796942c37.04287-36.735885 79.509144-68.45768 126.068552-94.142101 44.410513-24.558809 91.583891-43.080244 139.98521-55.154992 40.112721-10.02818 81.351054-8.697911 116.040372 3.888478 20.158689 7.265314 45.433796 22.0006 50.447886 39.601079 0.511642 1.944239 0 9.41421-7.572299 21.386629-11.358449 17.805136-39.294094 47.07105-107.444789 85.239532-6.958329 3.888478-10.232837 5.116419-11.460777 5.525732-4.195463-1.534926-14.632957-8.902568-23.944839-15.349256-12.279404-8.595583-29.061257-20.261017-51.982812-34.280004l-0.102328-0.102328c-24.149495-14.735285-54.234036-15.963226-86.774458-3.683821-18.82842 7.060658-33.052064 16.679524-37.247527 19.647047-6.446687 4.093135-45.536125 29.572899-74.69971 58.941141l0 0c-29.163585 29.265914-54.848006 68.355351-58.838813 74.597382-2.865194 4.093135-12.58639 18.316778-19.647047 37.349855-12.279404 32.64275-10.846807 62.624963 3.990806 86.876786 13.916658 22.61457 25.479764 39.396423 33.973019 51.573499 6.651344 9.516538 14.018987 20.158689 15.553912 24.354152-0.306985 1.22794-1.534926 4.502448-5.525732 11.665434-37.963825 67.741381-67.127411 95.574698-84.830219 107.035475-12.279404 7.879285-19.749375 8.390926-21.591286 7.879285-11.051464-3.069851-28.140302-18.112122-39.805736-50.447886-12.484061-34.791646-13.916658-75.927651-3.888478-116.040372 12.074748-48.605976 30.698511-95.677026 55.154992-140.087539C330.981113 351.203757 362.60058 308.839812 399.336464 271.796942z"  horiz-adv-x="1024" />

    
    <glyph glyph-name="wodexiaoxiicon" unicode="&#58940;" d="M512.89145175 833.85240878C263.90491191 833.85240878 62.29518242 654.38137588 62.29518242 433.14200214c0-130.17553506 63.6118541-245.59193935 171.05832774-318.79722919 0.88554815-0.44277363 0-179.91380654 0-179.91380654l169.87759716 108.77479541c33.06045322-7.08438252 70.6962375-10.92175664 106.26574307-10.92175664 248.98653984 0 451.92459112 179.47103291 451.92459112 400.85799784C961.86421602 654.38137588 761.8779916 833.85240878 512.89145175 833.85240878zM512.89145175 82.46505029000002c-40.14483662 0-84.86500342 5.46087832-121.76283076 15.05431319l-112.61216953-69.81068936 0 113.35012559c0 4.13255654-8.4127043 8.85547881-15.05431318 13.43080898-95.78676006 64.05462862-154.38051036 165.302267-154.38051036 279.09516709 0 193.63979883 181.09453711 350.67695185 402.03872755 350.67695185 221.38696494 0 401.30077148-156.88956269 401.30077148-350.67695185C912.42112695 239.35461298999996 734.27841582 82.46505029000002 512.89145175 82.46505029000002zM717.01023271 529.37153672L316.74260059 529.37153672c-13.87358349 0-25.09052256-11.65971357-25.09052256-25.53329619 0-13.87358349 11.36453115-25.53329619 25.09052255-25.5332962l400.41522335 0c13.87358349 0 25.09052256 11.65971357 25.09052255 25.5332962C742.10075527 517.56423193 731.32658984 529.37153672 717.01023271 529.37153672zM659.30203057 352.70473857L352.60728945 352.70473857c-11.65971357 0-21.40073964-9.59343487-21.40073964-21.40073964l-1e-8-6.6416089c0-11.65971357 9.59343487-22.13869658 21.40073965-22.13869657l306.694742 0c11.65971357 0 21.69592295 10.03620938 21.69592295 22.13869657l0 6.6416089C681.14554473 343.11130371 671.40451865 352.70473857 659.30203057 352.70473857z"  horiz-adv-x="1024" />

    
    <glyph glyph-name="yidongyunkongzhitaiicon69" unicode="&#59211;" d="M690.898109 896l0-63.892182 0-530.30511-63.892182-108.616709L627.005927 832.107818 64.754726 832.107818l0-766.706183 562.251201 0-31.946091-63.892182L64.754726 1.509453 0.862544 1.509453 0.862544 896l63.892182 0L690.898109 896zM141.425345 416.808635l415.299183 0L556.724527 480.700817 141.425345 480.700817 141.425345 416.808635zM141.425345 276.245835l415.299183 0L556.724527 346.527235 141.425345 346.527235 141.425345 276.245835zM141.425345 550.982218l415.299183 0L556.724527 621.263618 141.425345 621.263618 141.425345 550.982218zM967.980533-28.689586l-33.693143 58.651026 0 122.29363c0 24.957884-8.735259 52.411556-26.205778 74.873651-17.470519 23.709989-41.180508 42.428402-67.386286 52.411556 0 0 0 0 0 0 0 0-2.495788 1.247894-6.239471 1.247894L834.455856 284.531852c0 22.462095-17.470519 39.932614-39.932614 39.932614-22.462095 0-39.932614-17.470519-39.932614-39.932614l0-3.743683c-2.495788-1.247894-4.991577-1.247894-4.991577-1.247894 0 0 0 0 0 0-26.205778-9.983153-51.163661-28.701566-68.63418-52.411556-17.470519-23.709989-26.205778-49.915767-26.205778-76.121545l0-122.29363-34.941037-62.394709c-3.743683-7.487365-3.743683-16.222624 0-23.709989 3.743683-7.487365 12.478942-12.478942 21.214201-12.478942l87.352593 0c4.991577-32.445249 33.693143-57.403132 67.386286-57.403132 33.693143 0 62.394709 24.957884 67.386286 57.403132l87.352593 0c13.726836 0 23.709989 11.231048 23.709989 23.709989C974.220004-38.67274 972.97211-32.433269 967.980533-28.689586L967.980533-28.689586 967.980533-28.689586zM795.771136 304.498159c9.983153 0 18.718413-7.487365 18.718413-17.470519-2.495788 0-3.743683 1.247894-6.239471 1.247894-1.247894 0-1.247894 0-2.495788 0 0 0-1.247894 0-1.247894 0-2.495788 0-6.239471 1.247894-8.735259 1.247894-3.743683 0-6.239471 0-8.735259-1.247894 0 0-1.247894 0-1.247894 0-1.247894 0-2.495788 0-2.495788 0-2.495788 0-3.743683 0-6.239471-1.247894C777.052724 295.7629 785.787983 304.498159 795.771136 304.498159L795.771136 304.498159 795.771136 304.498159zM795.771136-101.067449c-21.214201 0-38.68472 14.97473-42.428402 33.693143l84.856804 0C834.455856-87.340613 816.985337-101.067449 795.771136-101.067449L795.771136-101.067449 795.771136-101.067449zM935.535284-32.433269 656.006988-32.433269c-1.247894 0-2.495788 0-2.495788 1.247894 0 1.247894 0 2.495788 0 3.743683l34.941037 56.155238c1.247894 1.247894 1.247894 3.743683 1.247894 4.991577l0 118.549947c0 42.428402 26.205778 81.113122 69.882074 97.335746 1.247894 0 12.478942 3.743683 23.709989 6.239471 1.247894 0 1.247894 0 2.495788 0 1.247894 0 2.495788 0 3.743683 0 2.495788 0 3.743683 0 4.991577 0 1.247894 0 3.743683 0 4.991577 0 1.247894 0 2.495788 0 3.743683 0 1.247894 0 1.247894 0 1.247894 0 11.231048-2.495788 23.709989-6.239471 24.957884-6.239471 42.428402-16.222624 68.63418-54.907344 68.63418-96.087852l0-118.549947c0-1.247894 0-3.743683 1.247894-4.991577l32.445249-52.411556c0-1.247894 1.247894-1.247894 1.247894-2.495788 0 0 1.247894-1.247894 1.247894-2.495788C938.031073-31.185375 936.783178-32.433269 935.535284-32.433269L935.535284-32.433269 935.535284-32.433269z"  horiz-adv-x="1024" />

    
    <glyph glyph-name="dianhua1" unicode="&#58923;" d="M796.52558 417.345099C799.040348 400.832201 813.283279 389.037273 829.462359 389.037273 831.175962 389.037273 832.86731 389.148546 834.580913 389.415601 852.807414 392.219678 865.314488 409.266686 862.510411 427.470933 818.223796 715.912548 559.625574 729.465587 557.021788 729.57686 539.106851 730.533807 523.083553 715.979311 522.349152 697.552519 521.614751 679.125727 535.968955 663.592029 554.373493 662.857628 556.443169 662.76861 760.47316 651.997393 796.52558 417.345099ZM871.069522 735.732477C643.805749 962.840468 436.415316 883.146816 427.691521 879.630592 410.600003 872.753927 402.299044 853.303424 409.17571 836.211907 416.07463 819.098134 435.480624 810.797176 452.594396 817.696096 454.330253 818.385988 627.493142 884.793655 823.867558 688.530512 1004.752786 507.734302 951.653357 324.15627 949.361136 316.567458 943.864254 298.964085 953.634015 280.225728 971.215133 274.706593 974.531066 273.660627 977.913762 273.193281 981.20744 273.193281 995.428117 273.193281 1008.602828 282.317659 1013.075999 296.582845 1015.969094 305.84075 1081.620106 525.315421 871.069522 735.732477ZM792.895858-50.566352C789.691199-53.771012 779.231546-61.226296 750.92372-61.226296 659.168086-61.226296 483.334647 15.86357 314.06631 185.087398 91.832073 407.366145 41.291921 626.796306 78.412561 663.894692 102.402998 687.907384 152.297767 737.846662 199.477477 737.846662 225.582099 737.846662 250.329192 722.82482 275.09854 691.935463 346.491234 602.983906 315.579622 572.472876 264.349578 521.932724L254.824618 512.496782C241.983725 499.678144 235.196078 482.764663 235.196078 463.55896 235.173823 432.892149 249.995374 377.322462 378.181756 249.247353 506.390393 121.10548 561.937825 106.283929 592.582382 106.283929L592.604636 106.283929C611.743575 106.283929 628.634802 113.027067 641.475695 125.823451L650.889382 135.326157C678.752116 163.567219 702.831572 187.980493 733.275838 187.980493 756.865693 187.980493 786.375266 173.893344 820.958884 146.119628 850.423948 122.4185 865.401281 98.917663 866.714301 74.17057 869.362596 25.811367 817.73197-25.77475 792.895858-50.566352ZM862.77524 198.150837C815.372984 236.250678 773.000264 254.744234 733.275838 254.744234 674.902074 254.744234 636.891251 216.199301 603.353599 182.194303L592.582382 173.04767C582.32302 173.04767 539.972554 181.927248 425.383721 296.471572 291.655948 430.110326 302.026582 465.228054 302.026582 465.294818L311.239979 474.419196C364.005588 526.472659 436.288465 597.776334 327.174258 733.70731 289.43049 780.731238 246.456896 804.610403 199.477477 804.610403 124.657579 804.610403 63.835811 743.76638 31.188342 711.118911-65.352027 614.511778 75.964557 328.807477 266.864346 137.885433 450.553651-45.759363 642.321369-127.990037 750.92372-127.990037 790.091781-127.990037 820.11321-117.797439 840.120078-97.790571 871.766091-66.144558 937.639648-0.337764 933.389023 77.798067 931.007783 121.928899 907.239892 162.432235 862.77524 198.150837"  horiz-adv-x="1046" />

    
    <glyph glyph-name="xiaoxi1" unicode="&#59004;" d="M512.852414 496.473631c-30.783097 0-55.740512-24.958438-55.740512-55.740512 0-30.783097 24.957415-55.740512 55.740512-55.740512 30.783097 0 55.740512 24.957415 55.740512 55.740512C568.592926 471.515193 543.635511 496.473631 512.852414 496.473631zM289.88832 496.473631c-30.783097 0-55.740512-24.958438-55.740512-55.740512 0-30.783097 24.957415-55.740512 55.740512-55.740512 30.783097 0 55.740512 24.957415 55.740512 55.740512C345.629855 471.515193 320.671417 496.473631 289.88832 496.473631zM512.852414 830.919772c-246.27501 0-445.927165-174.709067-445.927165-390.186653 0-123.156948 65.361637-232.816486 167.222559-304.315914l0-197.352787 195.352223 118.529557c27.039843-4.461615 54.843072-7.04751 83.352383-7.04751 246.27501 0 445.928189 174.680415 445.928189 390.186653C958.779579 656.209682 759.1264 830.919772 512.852414 830.919772zM512.852414 106.286977c-32.552393 0-63.98836 3.781116-94.213755 10.233062l-131.200134-78.876442 1.755993 129.282458c-100.596116 60.476373-166.528758 160.472831-166.528758 273.80604 0 184.697559 174.694741 334.446142 390.186653 334.446142 215.491912 0 390.186653-149.748582 390.186653-334.446142C903.039068 256.008954 728.344327 106.286977 512.852414 106.286977zM735.816508 496.473631c-30.783097 0-55.740512-24.958438-55.740512-55.740512 0-30.783097 24.957415-55.740512 55.740512-55.740512 30.783097 0 55.740512 24.957415 55.740512 55.740512C791.55702 471.515193 766.598582 496.473631 735.816508 496.473631z"  horiz-adv-x="1024" />

    
    <glyph glyph-name="chaxun" unicode="&#58924;" d="M933.602 64.53 721.175 278.738c-2.472 2.479-5.204 4.372-7.813 6.435 35.884 55.518 56.836 121.647 56.836 192.878 0 195.694-157.298 354.31-351.461 354.31-194.054 0-351.461-158.616-351.461-354.31 0-195.722 157.407-354.302 351.461-354.302 70.631 0 136.303 21.179 191.459 57.361 2.009-2.692 3.852-5.369 6.283-7.827l212.454-214.235c14.506-14.579 33.396-21.849 52.314-21.849 18.932 0 37.836 7.268 52.328 21.814C962.436-11.824 962.436 35.39 933.602 64.53M418.737 235.63c-132.562 0-240.468 108.767-240.468 242.421 0 133.634 107.907 242.428 240.468 242.428 132.561 0 240.467-108.794 240.467-242.428C659.204 344.398 551.298 235.63 418.737 235.63"  horiz-adv-x="1024" />

    
    <glyph glyph-name="ai207" unicode="&#59076;" d="M425.640718 532.754292l0 170.978945-299.323927-299.251272 299.323927-299.378162 0 175.361761c213.758218 0 363.447299-68.396695 470.302872-218.076566C853.226739 276.200428 724.955435 489.912597 425.640718 532.754292"  horiz-adv-x="1024" />

    
    <glyph glyph-name="mima" unicode="&#58900;" d="M791.314 497.119h-26.69v109.045c0 139.291-113.333 252.625-252.642 252.625-139.274 0-252.607-113.333-252.607-252.625v-109.045h-26.69c-60.525 0-109.761-49.235-109.761-109.761v-368.388c0-60.525 49.235-109.761 109.761-109.761h558.629c60.525 0 109.761 49.235 109.761 109.761v368.388c0.001 60.525-49.234 109.761-109.761 109.761zM332.548 606.166c0 98.953 80.498 179.452 179.433 179.452 98.971 0 179.469-80.498 179.469-179.452v-109.045h-358.901v109.045zM827.901 18.971c0-20.17-16.4-36.587-36.587-36.587h-558.629c-20.187 0-36.587 16.418-36.587 36.587v368.388c0 20.17 16.4 36.587 36.587 36.587h558.629c20.187 0 36.587-16.418 36.587-36.587v-368.388zM431.834 203.161c0-44.273 35.89-80.164 80.164-80.164 44.273 0 80.164 35.89 80.164 80.164 0 44.273-35.89 80.164-80.164 80.164-44.273 0-80.164-35.89-80.164-80.164z"  horiz-adv-x="1024" />

    
    <glyph glyph-name="shouye1" unicode="&#58918;" d="M778.856767-22.197302l16.818037 16.818037L795.674804 343.427956l0 40.61093 40.611953 0 56.18258 0 15.634072 31.268144L511.334851 776.010185 114.567315 415.30703l15.632025-31.268144 56.183604 0 40.61093 0 0-40.61093 0-348.807221 16.819061-16.818037 145.625682 0L389.438617 262.142651 389.438617 302.817026l40.674375 0 162.444742 0 40.672328 0 0-40.674375 0-284.339954L778.856767-22.197302M795.674804-62.808232 592.557734-62.808232l0 324.950883L430.112991 262.142651l0-324.950883L226.994897-62.808232l-40.61093 40.61093L186.383968 343.427956l-81.285305 0-40.61093 81.222883L511.334851 830.886003l446.848141-406.236188-40.611953-81.222883-81.283258 0 0-365.625258L795.674804-62.808232 795.674804-62.808232 795.674804-62.808232z"  horiz-adv-x="1024" />

    
    <glyph glyph-name="stop" unicode="&#58936;" d="M514.4 872.11059096C250.8 872.11059096 36 657.31059094 36 393.71059094s214.8-478.40000001 478.4-478.39999998 478.40000001 214.8 478.4 478.39999998S777.6 872.11059096 514.4 872.11059096L514.4 872.11059096zM514.4-24.689409039999987c-231.2 0-418.40000001 188-418.4 418.39999998 0 231.2 188 418.40000001 418.4 418.4 231.2 0 418.40000001-188 418.39999999-418.4C932.80000001 162.91059096000004 745.2-24.689409039999987 514.4-24.689409039999987L514.4-24.689409039999987zM620 224.11059093999995l-218.8 0c-33.2 0-59.99999999 27.20000001-60.00000001 60l0 218.8c0 33.2 27.20000001 59.99999999 60.00000001 60.00000002L620 562.91059096c33.2 0 59.99999999-27.20000001 60.00000001-60.00000002L680.00000001 284.11059093999995C680.00000001 250.91059094000002 653.2 224.11059093999995 620 224.11059093999995z"  horiz-adv-x="1024" />

    
    <glyph glyph-name="shouye" unicode="&#58967;" d="M732.48 348.48 730.496 100.48 615.488 101.504 614.528 271.872 409.472 271.872 408.512 101.504 292.48 102.528 292.48 348.48 247.808 348.48 247.808 53.504 454.976 53.504 454.976 227.52 570.048 228.48 570.048 53.504 777.216 53.504 777.216 348.48ZM859.008 385.536 512.512 714.56 164.992 385.536 237.504 385.536 512.512 641.536 786.496 385.536Z"  horiz-adv-x="1024" />

    
    <glyph glyph-name="zhanneixiaoxi" unicode="&#59046;" d="M868.648304 801.21831 212.360084 801.21831l-7.281847 0-49.673329 0c-48.749284 0-88.476077-35.868929-88.476077-79.997985l0-441.945481-0.054235 0 0-66.085114c0-44.073798 39.727817-79.94375 88.530312-79.94375l45.053102 0 0-138.637524c0-10.488889 5.92392-20.10592 15.271822-24.781406 3.913123-2.065032 8.260128-3.044336 12.55392-3.044336 5.815449 0 11.57564 1.849114 16.467043 5.380544l267.275299 156.246577c15.435551 7.609305 30.543643 3.151783 31.956829 4.837168l324.610122 0c48.749284 0 88.532359 35.869952 88.532359 79.94375l0 52.444443 0 0 0 455.586153C957.124382 765.349381 917.451824 801.21831 868.648304 801.21831zM901.471874 265.633149l0-52.444443c0-12.933567-15.379269-24.291243-32.879851-24.291243L494.419088 188.897464l-99.128695-55.488779-139.180899-83.856873 0 75.160817 0 8.532327 0 55.652508-54.401004 0-19.456121 0-26.847461 0c-17.499559 0-32.879851 11.358699-32.879851 24.291243l0.054235 66.085114 0 441.945481c0 12.988826 15.326057 24.347524 32.825616 24.347524l49.673329 0 7.281847 0 656.288221 0c17.498536 0 32.82357-11.358699 32.82357-24.347524L901.471874 265.633149zM731.803613 522.963958c-30.759561 0-55.650461-24.8909-55.650461-55.650461 0-30.705326 24.8909-55.650461 55.650461-55.650461 30.705326 0 55.650461 24.945135 55.650461 55.650461C787.454074 498.073058 762.508939 522.963958 731.803613 522.963958zM509.200746 522.963958c-30.759561 0-55.650461-24.8909-55.650461-55.650461 0-30.705326 24.8909-55.650461 55.650461-55.650461 30.705326 0 55.650461 24.945135 55.650461 55.650461C564.850184 498.073058 539.905048 522.963958 509.200746 522.963958zM286.597879 522.963958c-30.760584 0-55.650461-24.8909-55.650461-55.650461 0-30.705326 24.8909-55.650461 55.650461-55.650461 30.705326 0 55.650461 24.945135 55.650461 55.650461C342.24834 498.073058 317.303204 522.963958 286.597879 522.963958z"  horiz-adv-x="1024" />

    
    <glyph glyph-name="dingdanshenpi" unicode="&#58998;" d="M763.931719 360.592225 763.931719 221.026534 763.931719-58.104832C763.931719-57.659763 140.54965-57.302546 140.54965-57.302546 140.886334-57.302546 141.241379 739.517722 141.241379 739.517722 141.241379 739.072653 338.799581 738.715436 338.799581 738.715436L437.924546 738.715436 450.315123 738.715436C469.816497 738.715436 485.625468 754.524425 485.625468 774.025781 485.625468 793.527155 469.816497 809.336126 450.315123 809.336126L437.924546 809.336126 338.799581 809.336126 140.54965 809.336126C101.916425 809.336126 70.62069 778.111347 70.62069 739.517722L70.62069-58.104832C70.62069-96.722202 101.946615-127.923235 140.54965-127.923235L764.623448-127.923235C803.256497-127.923235 834.552408-96.698439 834.552408-58.104832L834.552408 221.026534 834.552408 360.592225 834.552408 395.48363C834.552408 414.985004 818.743261 430.793975 799.242063 430.793975 779.74069 430.793975 763.931719 414.985004 763.931719 395.48363L763.931719 360.592225ZM867.928276 670.029153C867.928276 611.038402 834.777865 557.980142 783.169677 531.598389 765.805639 522.721951 758.925065 501.449781 767.801556 484.085672 776.67787 466.72158 797.950058 459.840971 815.314273 468.717409 890.314858 507.057364 938.548966 584.257395 938.548966 670.029153 938.548966 709.096254 928.593037 746.799545 909.912452 780.199512 900.39296 797.219628 878.878543 803.300158 861.858428 793.780754 844.838312 784.26135 838.757694 762.746827 848.277186 745.726711 861.103316 722.794231 867.928276 696.947853 867.928276 670.029153ZM582.329909 754.740189C592.981098 771.075919 588.372745 792.953114 572.036943 803.60425 555.701319 814.255404 533.824088 809.647122 523.172899 793.311391 520.707708 789.5305 518.355862 785.676164 516.12107 781.753432 506.467399 764.809128 512.377644 743.247183 529.321843 733.593512 546.266218 723.93984 567.828127 729.850068 577.481799 746.794372 579.017799 749.490476 580.634659 752.140253 582.329909 754.740189ZM591.096938 270.730558C610.598312 270.730558 626.407283 286.539529 626.407283 306.040903 626.407283 325.542259 610.598312 341.351247 591.096938 341.351247L244.441512 341.351247C224.940138 341.351247 209.131167 325.542259 209.131167 306.040903 209.131167 286.539529 224.940138 270.730558 244.441512 270.730558L591.096938 270.730558ZM244.441512 168.023517C224.940138 168.023517 209.131167 152.214528 209.131167 132.713172 209.131167 113.211798 224.940138 97.402827 244.441512 97.402827L660.428094 97.402827C679.929468 97.402827 695.738439 113.211798 695.738439 132.713172 695.738439 152.214528 679.929468 168.023517 660.428094 168.023517L244.441512 168.023517ZM826.840629 695.438124C840.630201 709.227661 840.630201 731.584936 826.840629 745.37449 813.051057 759.164028 790.693782 759.164028 776.90421 745.37449 761.683862 730.154161 761.683862 730.154161 756.940977 725.411293 743.151404 711.621738 743.151404 689.264463 756.940977 675.474926 770.730549 661.685372 793.087823 661.685372 806.877396 675.474926 811.620281 680.217794 811.620281 680.217794 826.840629 695.438124ZM712.578119 896C635.277065 896 564.599349 856.847431 523.172899 793.311391 512.52171 776.975642 517.130063 755.098465 533.465865 744.447311 549.80149 733.796175 571.67872 738.40444 582.329909 754.740189 610.853782 798.487623 659.398444 825.37931 712.578119 825.37931 769.50069 825.37931 820.98123 794.530145 848.277186 745.726711 857.796502 728.706595 879.311095 722.626066 896.331211 732.14547 913.351327 741.664874 919.431768 763.179414 909.912452 780.199512 870.254874 851.104874 795.334797 896 712.578119 896ZM695.781517 664.251833C696.019686 664.489931 696.520739 664.490937 696.838003 664.173674 691.563873 669.447804 691.563873 669.447804 675.741484 685.270157 667.830378 693.181334 667.830378 693.181334 661.23776 699.77397 647.448188 713.563524 625.090913 713.563524 611.301341 699.77397 597.511768 685.984433 597.511768 663.627158 611.301341 649.837603 617.893959 643.24495 617.893959 643.24495 625.805241 635.333773 641.627454 619.51142 641.627454 619.51142 646.901583 614.237308 674.208309 586.930706 718.421451 587.019034 745.717937 614.315467L806.877396 675.474926C820.666968 689.264463 820.666968 711.621738 806.877396 725.411293 793.087823 739.200847 770.730549 739.200847 756.940977 725.411293L695.781517 664.251833ZM486.607272 670.029153C486.607272 545.228888 587.777766 444.058289 712.578119 444.058289 748.744563 444.058289 783.763597 452.588915 815.314273 468.717409 832.678312 477.593847 839.558886 498.866017 830.682394 516.230126 821.80608 533.594218 800.533892 540.474827 783.169677 531.598389 761.513843 520.527996 737.503161 514.678978 712.578119 514.678978 626.780513 514.678978 557.227961 584.231618 557.227961 670.029153 557.227961 697.370218 564.269374 723.603738 577.481799 746.794372 587.13547 763.738677 581.225225 785.300621 564.281026 794.954293 547.336651 804.607982 525.774742 798.697754 516.12107 781.753432 496.879228 747.97997 486.607272 709.710777 486.607272 670.029153Z"  horiz-adv-x="1024" />

    
    <glyph glyph-name="xiangyou" unicode="&#59014;" d="M675.027968 382.897735C674.403822 383.52188 292.824911 2.899226 292.824911 2.899226 279.035374-10.890328 279.035374-33.247603 292.824911-47.037158 306.614466-60.826695 328.971741-60.826695 342.761295-47.037158L724.964334 335.165899C751.909906 362.111453 751.929097 405.869338 724.964334 432.834101L342.761295 815.037158C328.971741 828.826695 306.614466 828.826695 292.824911 815.037158 279.035374 801.247603 279.035374 778.890328 292.824911 765.100774L675.027968 382.897735Z"  horiz-adv-x="1024" />

    
    <glyph glyph-name="applications" unicode="&#58890;" d="M1008.302 589.443l-218.611-218.611c-20.13-20.13-52.741-20.13-72.87 0l-218.582 218.611c-20.13 20.101-20.13 52.741 0 72.842l218.582 218.611c20.13 20.13 52.741 20.13 72.87 0l218.611-218.611c20.13-20.101 20.13-52.741 0-72.842zM753.669 841.177l-215.711-215.711 215.711-215.711 215.711 215.711-215.711 215.711zM369.842-127.972h-312.748c-31.417 0-56.863 25.446-56.863 56.863v312.748c0 31.388 25.446 56.863 56.863 56.863h312.748c31.388 0 56.863-25.475 56.863-56.863v-312.748c0-31.417-25.475-56.863-56.863-56.863zM369.842 241.639h-312.748v-312.748h312.748v312.748zM369.842 383.797h-312.748c-31.417 0-56.863 25.446-56.863 56.863v312.748c0 31.388 25.446 56.863 56.863 56.863h312.748c31.388 0 56.863-25.475 56.863-56.863v-312.748c0-31.417-25.475-56.863-56.863-56.863zM369.842 753.408h-312.748v-312.748h312.748v312.748zM568.863 298.503h312.748c31.388 0 56.863-25.475 56.863-56.863v-312.748c0-31.417-25.475-56.863-56.863-56.863h-312.748c-31.417 0-56.863 25.446-56.863 56.863v312.748c0 31.388 25.446 56.863 56.863 56.863zM568.863-71.108h312.748v312.748h-312.748v-312.748z"  horiz-adv-x="1024" />

    
    <glyph glyph-name="shuaxin2" unicode="&#58963;" d="M883.875 211.194c41.592 90.131 47.607 188.11 23.715 277.077-27.468 102.682-95.063 194.238-193.08 249.865l43.48 93.961-247.21-64.819 110.564-230.424 45.491 98.308c66.606-40.672 112.204-104.396 131.498-176.146 17.257-64.639 13.024-134.926-17.145-200.514-38.445-83.352-110.309-140.105-192.603-162.245a296.78 296.78 0 0 0-36.221-7.297l51.033-105.49c4.853 1.129 9.665 2.263 14.447 3.572 113.302 30.203 213.143 109.249 266.031 224.152z m-524.696-82.476c-67.595 40.598-113.886 104.87-133.367 177.273-17.252 64.64-12.985 134.967 17.145 200.48 38.447 83.386 110.31 140.141 192.605 162.28 13.646 3.651 27.541 6.275 41.587 7.957l-50.886 106.037c-6.676-1.426-13.353-2.956-19.957-4.744-113.266-30.272-213.141-109.317-266.07-224.221-41.511-90.097-47.533-188.11-23.639-277.038l0.073-0.293c27.686-103.375 96.083-195.406 195.196-250.886l-41.111-89.661 246.955 65.694-111.329 230.022-47.202-102.9z m0 0"  horiz-adv-x="1024" />

    
    <glyph glyph-name="zhuanxianjieru" unicode="&#58930;" d="M852 704.74H172c-17.673 0-32-14.327-32-32v-481.005c0-17.673 14.327-32 32-32h308v-63.292H270.018c-17.673 0-32-14.327-32-32s14.327-32 32-32h483.964c17.673 0 32 14.327 32 32s-14.327 32-32 32H544v63.292h308c17.673 0 32 14.327 32 32V672.74c0 17.673-14.327 32-32 32z m-32-481.006H544V431.866l111.544-111.543c6.248-6.249 14.438-9.373 22.627-9.373s16.379 3.124 22.628 9.373c12.496 12.496 12.496 32.758 0 45.254L533.861 532.514c-12.496 12.497-32.758 12.497-45.254 0L323.201 367.109c-12.497-12.497-12.497-32.759 0-45.255 12.497-12.498 32.758-12.497 45.255-0.001L480 433.397v-209.663H204V640.74h616v-417.006z"  horiz-adv-x="1024" />

    
    <glyph glyph-name="lingdang" unicode="&#58904;" d="M954.071984 115.726901l-84.967607 144.929732V461.516994a319.712947 319.712947 0 0 1-66.647264 187.490083 381.052925 381.052925 0 0 1-172.792983 129.416126l-1.224759 0.408253a405.49706 405.49706 0 0 1-15.768763 4.643875v10.20632a102.216286 102.216286 0 0 1-204.483604 0v-9.389814a372.785807 372.785807 0 0 1-13.472341-3.929433l-0.867537-0.255158A380.542609 380.542609 0 0 1 218.043278 650.793182a320.376358 320.376358 0 0 1-67.872022-189.174125v-200.860361l-90.938303-155.136051a58.890461 58.890461 0 0 1 0-60.11522 38.835044 38.835044 0 0 1 42.815508-20.412638h255.157979a153.094787 153.094787 0 1 1 306.189574 0h255.157979a44.958836 44.958836 0 0 1 51.031596 50.470248 58.584272 58.584272 0 0 1-15.513605 40.161866zM510.505354 840.936908a48.326921 48.326921 0 0 0 48.837237-44.958836 371.61208 371.61208 0 0 1-16.534237 2.704675 27.199841 27.199841 0 0 1-7.042361 0l-2.9088 0.408253a125.99701 125.99701 0 0 1-46.285658 0l-2.500548-0.357221a29.08801 29.08801 0 0 1-7.297518 0c-5.10316-0.714442-10.206319-1.479916-15.003289-2.398485A48.27589 48.27589 0 0 0 510.505354 840.936908z m0-917.139838A112.269511 112.269511 0 0 0 408.442162 25.145819h204.126383a112.626732 112.626732 0 0 0-102.063191-101.348749zM918.758119 76.177415H102.252588c-3.112927 0 5.10316-7.399581 3.419117-5.10316a8.471245 8.471245 0 0 0 0 8.573308l94.510515 161.157779a25.821987 25.821987 0 0 1 3.470148 12.808931v207.698595a307.97568 307.97568 0 0 0 207.953753 269.650951 552.570119 552.570119 0 0 0 65.524569 15.309479 25.821987 25.821987 0 0 1 5.613476 0c4.133559 0.408253 8.011961 0.9696 11.737267 1.479916a104.104455 104.104455 0 0 0 15.309478 1.58198 102.726602 102.726602 0 0 0 15.309479-1.58198c3.725306-0.510316 7.603708-1.071664 11.788299-1.479916a23.882787 23.882787 0 0 1 5.103159 0 576.91219 576.91219 0 0 0 69.811223-16.687332 308.537028 308.537028 0 0 0 204.126383-268.273098v-207.698595a25.821987 25.821987 0 0 1 3.470149-12.808931l90.121798-153.656134a25.515798 25.515798 0 0 1 4.643875-5.817602 7.960929 7.960929 0 0 0 2.449516-5.919665C916.410666 71.074255 923.861279 76.177415 918.758119 76.177415z"  horiz-adv-x="1024" />

    
    <glyph glyph-name="gaojingxinxi" unicode="&#58894;" d="M512 220.16c-25.6 0-46.08-20.48-46.08-46.08s20.48-46.08 46.08-46.08 46.08 20.48 46.08 46.08-20.48 46.08-46.08 46.08zM942.08 56.32c30.72 51.2 30.72 107.52 0 158.72L655.36 716.8c-30.72 51.2-81.92 81.92-138.24 81.92s-107.52-30.72-138.24-81.92l-291.84-501.76c-30.72-51.2-30.72-112.64 0-158.72 30.72-51.2 81.92-76.8 138.24-76.8h578.56c56.32-5.12 107.52 25.6 138.24 76.8z m-66.56 35.84c-15.36-25.6-46.08-46.08-76.8-46.08h-578.56c-30.72 0-61.44 15.36-76.8 40.96-15.36 25.6-15.36 61.44 0 87.04l291.84 501.76c15.36 25.6 46.08 46.08 76.8 46.08s61.44-15.36 76.8-46.08l286.72-501.76c20.48-20.48 20.48-56.32 0-81.92zM501.76 542.72c-20.48-5.12-35.84-25.6-35.84-51.2 0-15.36 0-30.72 5.12-46.08 5.12-56.32 5.12-107.52 10.24-163.84 0-20.48 15.36-30.72 35.84-30.72 20.48 0 35.84 15.36 35.84 35.84V322.56c0 35.84 5.12 71.68 5.12 107.52 0 25.6 5.12 46.08 5.12 71.68 0 10.24 0 15.36-5.12 25.6-10.24 10.24-35.84 20.48-56.32 15.36z"  horiz-adv-x="1024" />

    
    <glyph glyph-name="fangda" unicode="&#59430;" d="M63.989383 790.557506l0-268.396843c0-18.935258 15.368012-34.304294 34.304294-34.304294 18.936281 0 34.304294 15.369036 34.304294 34.304294L132.597971 715.843874l218.107483-218.176045c12.82919-12.830213 33.618679-12.830213 46.515407 0 12.830213 12.897751 12.830213 33.686217 0 46.51643l-218.176045 218.107483 193.683211 0c18.935258 0 34.304294 15.369036 34.304294 34.304294 0 18.935258-15.369036 34.304294-34.304294 34.304294L104.331183 830.90033C79.288834 830.90033 63.989383 818.000532 63.989383 790.557506L63.989383 790.557506zM917.688719 830.90033 649.290853 830.90033c-18.935258 0-34.304294-15.369036-34.304294-34.304294 0-18.936281 15.369036-34.304294 34.304294-34.304294l193.683211 0-218.176045-218.107483c-12.830213-12.82919-12.830213-33.618679 0-46.51643 12.897751-12.830213 33.686217-12.830213 46.515407 0L889.420909 715.843874l0-193.683211c0-18.935258 15.369036-34.304294 34.304294-34.304294 18.936281 0 34.304294 15.369036 34.304294 34.304294L958.029496 790.557506C958.029496 818.000532 942.79963 830.90033 917.688719 830.90033L917.688719 830.90033zM104.331183-61.013353l268.397866 0c18.935258 0 34.304294 15.368012 34.304294 34.304294 0 18.936281-15.369036 34.304294-34.304294 34.304294L179.045839 7.595234l218.176045 218.107483c12.830213 12.82919 12.830213 33.618679 0 46.515407-12.897751 12.830213-33.686217 12.830213-46.515407 0l-218.107483-218.176045L132.598994 247.72529c0 18.935258-15.368012 34.304294-34.304294 34.304294-18.936281 0-34.304294-15.369036-34.304294-34.304294l0-268.397866C63.989383-48.115602 79.288834-61.013353 104.331183-61.013353L104.331183-61.013353zM958.029496-20.671553 958.029496 247.72529c0 18.935258-15.368012 34.304294-34.304294 34.304294-18.935258 0-34.304294-15.369036-34.304294-34.304294l0-193.683211L671.313425 272.218124c-12.82919 12.830213-33.618679 12.830213-46.515407 0-12.830213-12.897751-12.830213-33.686217 0-46.515407l218.176045-218.107483L649.290853 7.595234c-18.935258 0-34.304294-15.368012-34.304294-34.304294 0-18.936281 15.369036-34.304294 34.304294-34.304294l268.397866 0C942.79963-61.013353 958.029496-48.115602 958.029496-20.671553L958.029496-20.671553z"  horiz-adv-x="1024" />

    
    <glyph glyph-name="weidu" unicode="&#58903;" d="M1001.728331 550.25097 52.160414 550.25097l469.52652-396.50194L1001.728331 550.25097 1001.728331 550.25097zM1043.456662 520.941785l-347.818887-279.844761 347.818887-336.972833 0 4.388098L1043.456662 520.941785 1043.456662 520.941785zM0 519.948254l0-614.83053 347.818887 335.979301L0 519.948254 0 519.948254zM521.769728 95.875809l-139.177232 118.39586L34.194049-128 1011.746442-128 660.864166 214.271669 521.769728 95.875809 521.769728 95.875809z"  horiz-adv-x="1044" />

    
    <glyph glyph-name="tongji" unicode="&#59016;" d="M331.840623 102.515245 331.840623 508.549022c0 16.191531-12.457456 28.645338-27.399836 28.645338L222.235197 537.19436c-14.94238 0-27.399836-13.698094-27.399836-28.645338L194.835361 102.515245 331.840623 102.515245 331.840623 102.515245zM506.210956 102.515245 506.210956 682.918139c0 16.192747-12.453808 29.89449-27.401052 29.89449l-82.20559 0c-14.94238 0-27.399836-13.701743-27.399836-29.89449L369.204478 102.515245 506.210956 102.515245 506.210956 102.515245zM680.580073 102.515245 680.580073 359.089952c0 16.191531-12.452591 29.889625-27.399836 29.889625L570.979512 388.979577c-14.947245 0-27.405918-13.698094-27.405918-29.889625L543.573595 102.515245 680.580073 102.515245 680.580073 102.515245zM854.94919 102.515245 854.94919 508.549022c0 16.191531-12.452591 28.645338-27.399836 28.645338l-82.200725 0c-14.947245 0-27.399836-13.698094-27.399836-28.645338L717.948794 102.515245 854.94919 102.515245 854.94919 102.515245zM879.860454 65.15139"  horiz-adv-x="1024" />

    
    <glyph glyph-name="shouqijiantou" unicode="&#58976;" d="M992.256 211.456l-435.2 435.2c-25.088 25.088-65.536 25.088-90.624 0l-435.2-435.2c-25.088-25.088-25.088-65.536 0-90.624 12.288-12.288 28.672-18.944 45.056-18.944s32.768 6.144 45.056 18.944l390.144 390.144 390.144-390.144c12.288-12.288 28.672-18.944 45.056-18.944 16.384 0 32.768 6.144 45.056 18.944 25.6 25.6 25.6 66.048 0.512 90.624z"  horiz-adv-x="1024" />

    
    <glyph glyph-name="xitongshezhi" unicode="&#58897;" d="M659.2-89.6c-19.2 0-38.4 6.4-44.8 19.2-12.8 19.2-64 64-102.4 64-38.4 0-89.6-44.8-102.4-57.6-12.8-12.8-32-19.2-44.8-19.2-6.4 0-19.2 0-25.6 6.4l-121.6 70.4c-19.2 12.8-32 44.8-19.2 70.4 0 0 12.8 25.6 12.8 51.2 0 70.4-57.6 128-128 128H64c-19.2 0-38.4 19.2-44.8 44.8 0 0-12.8 57.6-12.8 96 0 44.8 12.8 96 12.8 96 6.4 32 25.6 51.2 44.8 51.2h6.4c70.4 0 128 57.6 128 128 0 25.6-6.4 51.2-6.4 51.2-12.8 25.6 0 57.6 19.2 70.4l128 70.4c6.4 0 12.8 6.4 25.6 6.4 19.2 0 38.4-6.4 44.8-19.2 12.8-19.2 64-57.6 102.4-57.6 38.4 0 89.6 38.4 102.4 57.6 12.8 12.8 32 19.2 44.8 19.2 6.4 0 19.2 0 25.6-6.4l128-70.4c19.2-12.8 32-44.8 19.2-70.4 0 0-12.8-25.6-12.8-51.2 0-70.4 57.6-128 128-128h12.8c19.2 0 38.4-19.2 44.8-44.8 0 0 12.8-57.6 12.8-96 0-44.8-12.8-96-12.8-96-6.4-25.6-25.6-44.8-44.8-44.8h-6.4c-70.4 0-128-57.6-128-128 0-25.6 12.8-51.2 12.8-51.2 12.8-25.6 0-57.6-19.2-70.4l-128-70.4c-12.8-19.2-19.2-19.2-32-19.2m0 57.6l121.6 64c0 6.4-12.8 38.4-12.8 70.4 0 102.4 76.8 185.6 179.2 192 0 6.4 6.4 51.2 6.4 83.2s-6.4 76.8-6.4 83.2c-102.4 6.4-179.2 89.6-179.2 192 0 32 12.8 64 12.8 70.4l-115.2 64h-6.4s-19.2-19.2-44.8-38.4c-32-12.8-70.4-25.6-102.4-25.6s-64 12.8-102.4 38.4c-19.2 12.8-38.4 32-38.4 38.4h-6.4l-121.6-64c0-6.4 12.8-38.4 12.8-70.4 0-102.4-76.8-185.6-179.2-192 0-6.4-6.4-51.2-6.4-83.2s6.4-76.8 6.4-83.2c102.4-6.4 179.2-89.6 179.2-192 0-32-12.8-64-12.8-70.4l115.2-64h6.4s19.2 19.2 44.8 38.4c38.4 25.6 70.4 38.4 102.4 38.4s70.4-12.8 102.4-38.4c25.6-25.6 38.4-44.8 44.8-51.2M512 211.2c-96 0-172.8 76.8-172.8 172.8 0 96 76.8 172.8 172.8 172.8 96 0 172.8-76.8 172.8-172.8 0-96-76.8-172.8-172.8-172.8m0 288C448 499.2 396.8 448 396.8 384S448 268.8 512 268.8 627.2 320 627.2 384C620.8 448 569.6 499.2 512 499.2m0 0z"  horiz-adv-x="1024" />

    
    <glyph glyph-name="youxiang2" unicode="&#58946;" d="M901.6832 682.3168L122.3168 682.3168c-38.8352 0-70.4-31.5648-70.4-70.4l0-458.2656c0-38.8352 31.5648-70.4 70.4-70.4l779.3408 0c38.8352 0 70.4 31.5648 70.4 70.4L972.0576 611.9168C972.0832 650.752 940.4928 682.3168 901.6832 682.3168zM933.6832 611.9168l0-458.2656c0-6.8096-2.6112-12.7744-6.2464-17.9712l-258.0224 240.512 262.4512 244.6336C932.736 617.9328 933.6832 615.0656 933.6832 611.9168zM90.3168 153.6512L90.3168 611.9168c0 3.1488 0.9472 6.016 1.792 8.8832l262.4768-244.6336L96.5632 135.68C92.928 140.8768 90.3168 146.8416 90.3168 153.6512zM512 281.9584L123.648 643.9168 900.352 643.9168 512 281.9584zM382.7456 349.9264L512 229.4528l129.2544 120.4736 244.8896-228.2752L137.856 121.6512 382.7456 349.9264z"  horiz-adv-x="1024" />

    
    <glyph glyph-name="jia" unicode="&#58970;" d="M512 825.717c-244.514 0-442.732-197.763-442.732-441.717s198.218-441.717 442.732-441.717 442.732 197.763 442.732 441.717-198.218 441.717-442.732 441.717M735.045 337.396h-176.442v-176.442c0-25.738-20.866-46.604-46.604-46.604s-46.604 20.866-46.604 46.604v176.442h-176.442c-25.738 0-46.604 20.866-46.604 46.604s20.866 46.604 46.604 46.604h176.442v176.442c0 25.738 20.866 46.604 46.604 46.604s46.604-20.866 46.604-46.604v-176.442h176.442c25.738 0 46.604-20.866 46.604-46.604s-20.866-46.604-46.604-46.604z"  horiz-adv-x="1024" />

    
    <glyph glyph-name="yingyong" unicode="&#59038;" d="M882.521 613.012l-354.987 204.861c-8.98 5.219-20.146 5.219-29.127 0l-354.987-204.861c-8.98-5.219-14.563-14.806-14.563-25.244v-409.842c0-10.437 5.583-20.025 14.563-25.244l354.987-204.982c4.491-2.548 9.588-3.884 14.563-3.884s10.073 1.334 14.563 3.884l354.987 204.982c8.98 5.219 14.563 14.806 14.563 25.244v409.842c0 10.437-5.583 20.025-14.563 25.244zM838.83 194.674l-325.859-188.112-325.859 188.112v376.225l325.859 188.112 325.859-188.112v-376.225zM270.124 512.524c-8.010-13.957-3.277-31.797 10.681-39.807l202.676-116.994v-231.439c0-16.142 12.986-29.127 29.127-29.127s29.127 12.986 29.127 29.127v231.075l203.404 117.479c13.957 8.010 18.69 25.851 10.681 39.807s-25.851 18.69-39.807 10.681l-203.040-117.236-203.040 117.236c-13.957 8.010-31.676 3.155-39.807-10.801z"  horiz-adv-x="1024" />

    
    <glyph glyph-name="close" unicode="&#58947;" d="M579.888 384l190.064 190.064a48 48 0 0 1-67.888 67.872L512 451.888 321.936 641.936a48 48 0 1 1-67.872-67.872L444.112 384 254.064 193.936a48 48 0 1 1 67.872-67.872L512 316.112l190.064-190.064a48 48 0 0 1 67.872 67.888L579.888 384z"  horiz-adv-x="1024" />

    
    <glyph glyph-name="bumenguanli" unicode="&#58990;" d="M977.454545 337.454545h-34.90909v104.727273c0 44.218182-37.236364 81.454545-81.454546 81.454546H546.909091v93.090909H744.727273c25.6 0 46.545455 20.945455 46.545454 46.545454V802.909091c0 25.6-20.945455 46.545455-46.545454 46.545454H279.272727c-25.6 0-46.545455-20.945455-46.545454-46.545454v-139.636364c0-25.6 20.945455-46.545455 46.545454-46.545454h197.818182v-93.090909H162.909091c-44.218182 0-81.454545-37.236364-81.454546-81.454546V337.454545H46.545455c-25.6 0-46.545455-20.945455-46.545455-46.545454v-325.818182c0-25.6 20.945455-46.545455 46.545455-46.545454h139.636363c25.6 0 46.545455 20.945455 46.545455 46.545454V290.909091c0 25.6-20.945455 46.545455-46.545455 46.545454H151.272727v104.727273c0 6.981818 4.654545 11.636364 11.636364 11.636364h314.181818v-116.363637H442.181818c-25.6 0-46.545455-20.945455-46.545454-46.545454v-325.818182c0-25.6 20.945455-46.545455 46.545454-46.545454h139.636364c25.6 0 46.545455 20.945455 46.545454 46.545454V290.909091c0 25.6-20.945455 46.545455-46.545454 46.545454h-34.909091v116.363637H861.090909c6.981818 0 11.636364-4.654545 11.636364-11.636364V337.454545H837.818182c-25.6 0-46.545455-20.945455-46.545455-46.545454v-325.818182c0-25.6 20.945455-46.545455 46.545455-46.545454h139.636363c25.6 0 46.545455 20.945455 46.545455 46.545454V290.909091c0 25.6-20.945455 46.545455-46.545455 46.545454zM162.909091 267.636364v-279.272728H69.818182V267.636364h93.090909z m395.636364 0v-279.272728h-93.09091V267.636364h93.09091zM302.545455 686.545455V779.636364h418.90909v-93.090909H302.545455z m651.636363-698.181819h-93.090909V267.636364h93.090909v-279.272728z"  horiz-adv-x="1024" />

    
    <glyph glyph-name="xialadanxuan" unicode="&#59039;" d="M896 832h-768c-35.2 0-64-28.8-64-64v-96c0-35.2 28.8-64 64-64h768c35.2 0 64 28.8 64 64v96c0 35.2-28.8 64-64 64zM896 688c0-9.6-6.4-16-16-16h-736c-9.6 0-16 6.4-16 16v64c0 9.6 6.4 16 16 16h736c9.6 0 16-6.4 16-16v-64zM768 576h-640c-35.2 0-64-28.8-64-64v-512c0-35.2 28.8-64 64-64h640c35.2 0 64 28.8 64 64v512c0 35.2-28.8 64-64 64zM768 32c0-19.2-16-32-32-32h-576c-16 0-32 12.8-32 32v448c0 19.2 16 32 32 32h576c16 0 32-12.8 32-32v-448zM656 160h-416c-9.6 0-16-6.4-16-16v-32c0-9.6 6.4-16 16-16h416c9.6 0 16 6.4 16 16v32c0 9.6-6.4 16-16 16zM656 416h-416c-9.6 0-16-6.4-16-16v-32c0-9.6 6.4-16 16-16h416c9.6 0 16 6.4 16 16v32c0 9.6-6.4 16-16 16zM656 288h-416c-9.6 0-16-6.4-16-16v-32c0-9.6 6.4-16 16-16h416c9.6 0 16 6.4 16 16v32c0 9.6-6.4 16-16 16z"  horiz-adv-x="1024" />

    
    <glyph glyph-name="add" unicode="&#58886;" d="M797.1 832H226.9C136.9 832 64 759.1 64 669.1v-570.2c0-90 72.9-162.9 162.9-162.9h570.2c90 0 162.9 72.9 162.9 162.9V669.1c0 90-72.9 162.9-162.9 162.9m0.1-529.5H593.5v-203.7h-163V302.5H226.9v163h203.6V669.1h162.9v-203.6h203.8v-163z"  horiz-adv-x="1024" />

    
    <glyph glyph-name="tingyong1" unicode="&#59188;" d="M205.824 378.88c0-16.384 13.312-29.696 29.696-29.696h543.744c16.384 0 29.696 13.312 29.696 29.696 0 16.384-13.312 29.696-29.696 29.696H235.52c-16.384-1.024-29.696-14.336-29.696-29.696zM988.16 403.456c-1.024 16.384-14.336 28.672-30.72 27.648-16.384-1.024-28.672-14.336-27.648-30.72 0-7.168 1.024-14.336 1.024-21.504 0-230.4-187.392-417.792-417.792-417.792C282.624-38.912000000000035 95.232 148.48000000000002 95.232 378.88 94.208 609.28 281.6 796.672 512 796.672c61.44 0 119.808-13.312 175.104-37.888l18.432-9.216c14.336-7.168 31.744-2.048 39.936 12.288 7.168 14.336 2.048 31.744-12.288 39.936-7.168 4.096-14.336 7.168-21.504 10.24C649.216 840.704 581.632 855.04 512 855.04 248.832 855.04 34.816 641.024 34.816 378.88c0-263.168 214.016-477.184 477.184-477.184 263.168 0 477.184 214.016 477.184 477.184 0 8.192-1.024 16.384-1.024 24.576zM939.008 516.096m-31.744 0a31.744 31.744 0 1 1 63.488 0 31.744 31.744 0 1 1-63.488 0ZM891.904 618.496m-31.744 0a31.744 31.744 0 1 1 63.488 0 31.744 31.744 0 1 1-63.488 0ZM815.104 707.5840000000001m-31.744 0a31.744 31.744 0 1 1 63.488 0 31.744 31.744 0 1 1-63.488 0Z"  horiz-adv-x="1024" />

    
    <glyph glyph-name="icon-test" unicode="&#58887;" d="M511.872 147.776l44.736 44.032 178.88-176-44.736-44.032-178.88 176zM979.264 320l44.736-44.032-313.152-307.968-44.672 44.032 313.088 307.968zM256 288h160c17.673 0 32-14.327 32-32s-14.327-32-32-32h-160c-17.673 0-32 14.327-32 32s14.327 32 32 32zM256 480h384c17.673 0 32-14.327 32-32s-14.327-32-32-32h-384c-17.673 0-32 14.327-32 32s14.327 32 32 32zM256 672h384c17.673 0 32-14.327 32-32s-14.327-32-32-32h-384c-17.673 0-32 14.327-32 32s14.327 32 32 32zM736 864h-576c-70.692 0-128-57.308-128-128v-704c0-70.692 57.308-128 128-128h416v64h-416c-35.346 0-64 28.654-64 64v704c0 35.346 28.654 64 64 64h576c35.346 0 64-28.654 64-64v-384h64v384c0 70.692-57.308 128-128 128z"  horiz-adv-x="1024" />

    
    <glyph glyph-name="zhuceshenpi" unicode="&#58891;" d="M32 32a32 32 0 0 1 64 0 256 256 0 0 0 256 256 254.08 254.08 0 0 0 101.888-21.376c4.224 21.376 10.56 41.856 18.944 61.376A318.848 318.848 0 0 1 352 352a320 320 0 0 1-320-320zM352 800a192 192 0 1 1 0-384 192 192 0 0 1 0 384z m0-320.192a128.192 128.192 0 1 0 0 256.448 128.192 128.192 0 0 0 0-256.448zM752 448a240 240 0 1 1 0-480 240 240 0 0 1 0 480z m0-416a176 176 0 1 0 0 352 176 176 0 1 0 0-352zM885.376 278.464a34.752 34.752 0 0 1-49.152 0l-103.36-103.424-39.872 39.872a31.104 31.104 0 0 1-43.904-43.904l65.856-65.856a30.976 30.976 0 0 1 33.984-6.592 33.856 33.856 0 0 1 13.632 8.064l122.752 122.752a34.752 34.752 0 0 1 0.064 49.088z"  horiz-adv-x="1024" />

    
    <glyph glyph-name="fujian" unicode="&#58988;" d="M901.12 827.776a202.88 202.88 0 0 1-286.976 0l-0.64-0.832 0.512-0.512c-0.768-0.704-1.728-0.896-2.368-1.6L144.896 358.208l-0.128-0.128-0.128-0.256-11.712-11.712a47.296 47.296 0 0 1-9.856-14.656c-85.76-109.76-79.36-268.288 21.76-369.344 100.864-100.992 259.008-107.52 368.832-22.272a51.072 51.072 0 0 1 15.232 10.24l324.608 324.672a48.512 48.512 0 0 1 1.024 68.8 48.704 48.704 0 0 1-68.864-0.896L475.776 32.64l-0.256 0.256c-0.896-0.96-1.472-2.112-2.496-3.008a184 184 0 0 0-260.352 259.968l0.256 0.384c0.896 0.96 1.92 1.536 2.944 2.432l-0.256 0.192 464 464c0.64 0.704 0.896 1.664 1.536 2.432l0.256-0.256c0.256 0.256 0.384 0.576 0.64 0.768a106.88 106.88 0 1 0 151.232-151.296l-0.768-0.64 0.512-0.512c-0.768-0.64-1.728-0.896-2.368-1.6l-478.592-478.656c-11.392-11.456-29.888-10.112-41.152 1.344a28.224 28.224 0 0 0-0.64 40.384l415.232 415.104a48.64 48.64 0 0 1 0.896 68.8 48.576 48.576 0 0 1-68.736-0.896l-415.168-415.296c-0.384-0.32-0.512-0.768-0.768-1.088-47.36-48.96-46.976-126.72 1.344-174.976 45.888-46.08 118.4-48.128 167.488-7.616 3.136 1.92 6.656 3.584 9.344 6.464l478.592 478.656c0.768 0.704 0.896 1.664 1.536 2.432l0.256-0.256 0.832 0.64a202.944 202.944 0 0 1 0 286.976z"  horiz-adv-x="1024" />

    
    <glyph glyph-name="bangzhuzhongxin" unicode="&#58932;" d="M511.283 832.938c-247.394 0-448.177-200.783-448.177-448.177S263.89-63.416 511.283-63.416 959.46 137.367 959.46 384.761 758.677 832.938 511.283 832.938z m44.818-761.901h-89.635v89.635h89.635v-89.635z m92.773 347.337l-40.336-41.232c-32.269-32.717-52.437-59.608-52.437-126.834h-89.635v22.409c0 49.3 20.168 94.117 52.437 126.834l55.574 56.47c16.583 16.134 26.443 38.543 26.443 63.193 0 49.3-40.336 89.635-89.635 89.635s-89.635-40.336-89.635-89.635h-89.635c0 99.047 80.224 179.271 179.271 179.271s179.271-80.224 179.271-179.271a142.629 142.629 0 0 0-41.683-100.84z"  horiz-adv-x="1024" />

    
    <glyph glyph-name="shezhi-tianchong" unicode="&#58938;" d="M992 480c-4.266667 27.733333-21.333333 46.933333-42.666667 46.933333h-4.266666c-70.4 0-128 57.6-128 130.133334 0 23.466667 10.666667 49.066667 10.666666 49.066666 12.8 23.466667 4.266667 55.466667-17.066666 70.4h-2.133334l-123.733333 68.266667H682.666667c-6.4 2.133333-14.933333 4.266667-23.466667 4.266667-17.066667 0-34.133333-6.4-44.8-19.2-14.933333-14.933333-61.866667-55.466667-100.266667-55.466667-38.4 0-85.333333 40.533333-100.266666 57.6-10.666667 14.933333-29.866667 21.333333-46.933334 21.333333-8.533333 0-17.066667-2.133333-23.466666-4.266666H341.333333l-128-70.4h-2.133333c-19.2-17.066667-27.733333-49.066667-17.066667-72.533334 0 0 10.666667-25.6 10.666667-49.066666 0-70.4-57.6-130.133333-128-130.133334h-2.133333c-19.2 0-36.266667-19.2-42.666667-46.933333 0-2.133333-10.666667-55.466667-10.666667-96 0-42.666667 10.666667-96 10.666667-98.133333 4.266667-27.733333 21.333333-46.933333 42.666667-46.933334h4.266666c70.4 0 128-57.6 128-130.133333 0-23.466667-10.666667-49.066667-10.666666-49.066667-12.8-23.466667-4.266667-53.333333 17.066666-68.266666h2.133334l119.466666-68.266667h2.133334c6.4-4.266667 14.933333-4.266667 23.466666-4.266667 17.066667 0 34.133333 6.4 46.933334 19.2 14.933333 14.933333 64 59.733333 102.4 59.733334 40.533333 0 87.466667-44.8 102.4-61.866667 10.666667-12.8 27.733333-19.2 46.933333-19.2 8.533333 0 17.066667 2.133333 23.466667 4.266667h2.133333l123.733333 70.4h2.133334c21.333333 14.933333 29.866667 46.933333 19.2 70.4 0 0-10.666667 25.6-10.666667 49.066666 0 70.4 57.6 130.133333 128 130.133334h4.266667c19.2 0 36.266667 17.066667 42.666666 46.933333 0 2.133333 10.666667 55.466667 10.666667 98.133333-2.133333 38.4-12.8 91.733333-12.8 93.866667zM512 213.33333300000004c-93.866667 0-170.666667 76.8-170.666667 170.666667s76.8 170.666667 170.666667 170.666667 170.666667-76.8 170.666667-170.666667-76.8-170.666667-170.666667-170.666667zM512 514.133333c-70.4 0-130.133333-57.6-130.133333-130.133333 0-72.533333 57.6-130.133333 130.133333-130.133333 70.4 0 130.133333 57.6 130.133333 130.133333 0 72.533333-59.733333 130.133333-130.133333 130.133333z"  horiz-adv-x="1024" />

    
    <glyph glyph-name="zhongduancanshuguanli" unicode="&#58937;" d="M993.889598 191.423962l-41.044193-12.788439c1.179981-8.865801 2.455635-17.508362 2.455636-26.661186 0-9.057149-1.435112-17.859167-2.806441-26.533619l41.394998-12.884114c9.694976-2.806441 17.859167-9.376063 22.57909-18.241864 4.688031-8.865801 5.644772-19.262387 2.423745-28.829798-6.665296-19.708867-28.574668-30.360584-49.080819-24.046093l-41.873369 12.979788a207.389579 207.389579 0 0 0-32.178392-43.27659l25.544987-33.741069a36.388053 36.388053 0 0 0-8.61067-52.174281 39.896104 39.896104 0 0 0-54.438568 8.227973l-25.672553 33.900526a218.009405 218.009405 0 0 0-52.748326-17.093774v-41.139867c0-20.601825-17.476471-37.408577-38.939363-37.408577-21.558566 0-39.003146 16.711078-39.003145 37.408577v41.139867a217.818057 217.818057 0 0 0-52.780218 17.093774l-25.60877-33.900526a40.183126 40.183126 0 0 0-54.47046-8.227973 36.164814 36.164814 0 0 0-8.578778 52.174281l25.800118 34.059983a201.138871 201.138871 0 0 0-33.29459 42.702545l-40.916628-12.78844c-20.601825-6.442057-42.511196 4.337226-49.11271 24.046093a36.930206 36.930206 0 0 0 24.970943 47.071662l41.076084 12.724657c-1.148089 8.833909-2.519418 17.604036-2.519418 26.693077 0 9.184715 1.498894 17.859167 2.838332 26.661185l-41.42689 12.820331c-20.569934 6.442057-31.66813 27.490361-24.970942 47.135445 6.601514 19.613193 28.510885 30.296802 49.112709 24.014201l41.841478-13.04357a211.057087 211.057087 0 0 0 32.178392 43.372263l-25.513096 33.645396a36.451836 36.451836 0 0 0 8.578779 52.206172 39.959887 39.959887 0 0 0 54.47046-8.291756l25.640661-33.900526a214.469463 214.469463 0 0 0 52.748326 17.125665v41.139868c0 20.633716 17.412688 37.408577 39.003146 37.408577 21.494783 0 38.971254-16.647295 38.971254-37.408577v-41.076085a216.733751 216.733751 0 0 0 52.716435-17.157557l25.672553 33.932418a40.119343 40.119343 0 0 0 54.438568 8.291756c17.348905-12.182503 21.271544-35.495095 8.642561-52.238064l-25.832009-34.028092c12.724657-12.916005 24.365007-26.980099 33.358373-42.60687l40.884736 12.660874c20.538042 6.314491 42.415522-4.401009 49.080819-24.077985 6.76097-19.613193-4.528575-40.661497-25.002835-47.071662z m-252.898564 91.273101c-75.327416 0-136.463172-58.616338-136.463172-130.8184 0-72.265844 61.135756-130.754617 136.463172-130.754617 75.231742 0 136.39939 58.488773 136.39939 130.754617 0 72.202062-61.071974 130.8184-136.39939 130.8184zM441.690527 0.330873H99.528018a49.750537 49.750537 0 0 0-49.782429 49.782429V796.403251c0 27.45847 22.292068 49.782429 49.782429 49.782429h447.818617v-223.909309a99.532966 99.532966 0 0 1 99.532966-99.532966h199.002149v-36.451836a322.102837 322.102837 0 0 0 49.782429-32.018935V547.618674l-8.802018 8.770127 1.530785 8.802018-307.05011 330.713507H99.559909A99.532966 99.532966 0 0 1 0.026943 796.37136v-746.321841a99.532966 99.532966 0 0 1 99.532966-99.532966h390.446043a322.963904 322.963904 0 0 0-48.315425 49.81432zM597.129064 804.854464l217.818057-232.32863h-168.06752a49.750537 49.750537 0 0 0-49.782428 49.750537V804.854464h0.031891zM174.185715 472.992868h248.784577v49.750537H174.185715v-49.750537zM422.970292 672.0588H174.185715v-49.782429h248.784577V672.0588zM174.185715 151.942446h248.784577v49.750537H174.185715v-49.750537zM514.115828 350.976486H174.185715v-49.750537h339.930113v49.750537z"  horiz-adv-x="1024" />

    
    <glyph glyph-name="shenfenzheng" unicode="&#58901;" d="M874 702.7139999999999c44.112 0 80-35.888 80-80v-492.283c0-44.111-35.888-80-80-80H150c-44.112 0-80 35.889-80 80V622.7139999999999c0 44.112 35.888 80 80 80h724m0 70H150c-82.843 0-150-67.157-150-150v-492.283c0-82.843 67.157-150 150-150h724c82.843 0 150 67.157 150 150V622.7139999999999c0 82.843-67.157 150-150 150zM715.5 547.6890000000001c43.05 0 78.074-35.024 78.074-78.074s-35.024-78.074-78.074-78.074-78.074 35.024-78.074 78.074 35.024 78.074 78.074 78.074m0 70c-81.779 0-148.074-66.295-148.074-148.074 0-81.779 66.295-148.074 148.074-148.074s148.074 66.295 148.074 148.074c0 81.779-66.295 148.074-148.074 148.074zM863.574 176.64599999999996c-19.33 0-35 15.67-35 35 0 62.349-50.725 113.073-113.074 113.073s-113.074-50.725-113.074-113.073c0-19.33-15.67-35-35-35s-35 15.67-35 35c0 100.947 82.127 183.073 183.074 183.073s183.074-82.126 183.074-183.073c0-19.331-15.67-35-35-35zM457.5 490.5h-312c-19.33 0-35 15.67-35 35s15.67 35 35 35h312c19.33 0 35-15.67 35-35s-15.67-35-35-35zM457.5 340h-312c-19.33 0-35 15.67-35 35s15.67 35 35 35h312c19.33 0 35-15.67 35-35s-15.67-35-35-35zM364.5 189.5h-219c-19.33 0-35 15.67-35 35s15.67 35 35 35h219c19.33 0 35-15.67 35-35s-15.67-35-35-35z"  horiz-adv-x="1024" />

    
    <glyph glyph-name="tuichu" unicode="&#58933;" d="M727.7056 429.4144H486.4a25.6 25.6 0 0 1 0-51.2h242.176l-65.3312-65.3312a25.6 25.6 0 1 1 36.1984-36.1984l108.5952 108.5952a25.4976 25.4976 0 0 1 0 36.1984l-108.5952 108.6464a25.6 25.6 0 1 1-36.1984-36.2496l64.512-64.512zM307.2 640h332.8a25.6 25.6 0 0 1 0 51.2h-358.4a25.4976 25.4976 0 0 1-25.6-25.6v-563.2a25.4976 25.4976 0 0 1 25.6-25.6h358.4a25.6 25.6 0 0 1 0 51.2H307.2V640z m204.8-768C229.2224-128 0 101.2224 0 384S229.2224 896 512 896s512-229.2224 512-512-229.2224-512-512-512z"  horiz-adv-x="1024" />

    
    <glyph glyph-name="quanju_zhanneixiaoxi" unicode="&#58892;" d="M862.528 670.4639999999999c29.12 0 52.864-23.68 52.864-52.8v-467.264a52.992 52.992 0 0 0-52.864-52.864H161.472a52.992 52.992 0 0 0-52.864 52.864V617.664c0 29.12 23.744 52.8 52.864 52.8h701.056m0 64H161.472A116.864 116.864 0 0 1 44.608 617.664v-467.264c0-64.64 52.288-116.864 116.864-116.864h700.992a116.8 116.8 0 0 1 116.864 116.864V617.664a116.8 116.8 0 0 1-116.8 116.8zM512 288.12800000000004a32.064 32.064 0 0 0-19.52 6.592L83.584 608.64a32 32 0 0 0 38.976 50.752L512 360.448l388.288 298.88a32 32 0 0 0 38.976-50.688L531.52 294.72A32.064 32.064 0 0 0 512 288.12800000000004z"  horiz-adv-x="1024" />

    
    <glyph glyph-name="drxx12" unicode="&#59156;" d="M778.784983 626.877979c-8.679956 2.367261-16.176281 5.523608-24.461693 7.496325a168.86459 168.86459 0 0 1-42.216147 4.734521c-3.945434 0-4.734521 0-4.734521 4.339978v39.454343c0 3.945434 0 4.734521-5.129065 4.734521H593.34957a21.699889 21.699889 0 0 0-24.856237 24.461693V817.047914c0 4.339978 0 5.523608-5.523608 5.523608H102.142995c-4.734521 0-5.918152 0-5.918152-5.918152V-50.94763999999998c0-5.129065 0-5.918152 6.312695-5.918152h599.311476c4.339978 0 6.312695 0 5.918151 5.918152s0 18.938085 0 28.80167c0 3.156347 0 3.945434 4.339978 3.945435H774.839549c3.156347 0 3.550891 0 3.550891-3.945435v-70.623274a35.508909 35.508909 0 0 0-35.114366-35.114366H64.661369a36.692539 36.692539 0 0 0-35.508909 19.727172 24.461693 24.461693 0 0 0-3.945435 14.598107 58.392428 58.392428 0 0 0 0 8.285412V856.502257A39.454343 39.454343 0 0 0 38.226959 886.487558 36.692539 36.692539 0 0 0 64.661369 895.9566h535.789982a45.372495 45.372495 0 0 0 33.930736-13.80902c43.399778-43.005234 87.194099-86.405012 130.98842-129.015703a41.821604 41.821604 0 0 0 13.414476-32.352561v-93.901337zM714.474404 33.484654999999975h-265.527731c-13.414477 0-16.965368 3.550891-16.965368 16.965367v34.719822a17.754455 17.754455 0 0 0 5.918152 13.414477 422.161474 422.161474 0 0 0 132.17205 85.221382 410.719714 410.719714 0 0 0 52.86882 16.570824 24.067149 24.067149 0 0 0 16.570824 0 164.130068 164.130068 0 0 1 57.997885-15.387194 177.544545 177.544545 0 0 1 94.690424 16.176281 25.25078 25.25078 0 0 0 16.176281 0 425.712365 425.712365 0 0 0 96.663141-39.454344 420.188757 420.188757 0 0 0 87.983186-65.099666 14.203564 14.203564 0 0 0 4.734521-11.047216v-37.481626c0-12.62539-4.339978-14.99265-15.387194-14.992651h-267.894991zM719.208925 589.396352a121.124834 121.124834 0 0 0 98.241315-55.23608 138.090202 138.090202 0 0 0 19.332628-118.36303 6.707238 6.707238 0 0 1 2.367261-7.890869 21.305345 21.305345 0 0 0 8.285412-24.067149 20.121715 20.121715 0 0 0-16.965368-16.570825c-4.339978 0-4.339978-3.156347-4.734521-5.918151a148.742874 148.742874 0 0 0-33.141649-76.541426 105.73764 105.73764 0 0 0-62.337862-39.454344 85.615925 85.615925 0 0 0-68.650558 16.176281 137.301115 137.301115 0 0 0-57.208797 98.635859c0 3.945434 0 5.523608-5.918152 6.312694a20.910802 20.910802 0 0 0-16.570824 16.965368 22.094432 22.094432 0 0 0 8.679955 24.06715c3.156347 0 3.156347 3.945434 2.367261 7.101781a137.695658 137.695658 0 0 0 39.454343 141.24655 121.519378 121.519378 0 0 0 87.983186 33.141648zM335.712707 515.2221870000001h133.750224a14.203564 14.203564 0 1 0 3.945435-28.012584H202.75157c-9.863586 0-16.176281 5.129065-16.570824 13.414477a13.80902 13.80902 0 0 0 13.414477 14.99265h136.117484zM335.712707 387.390114h134.144768a14.203564 14.203564 0 0 0 15.781737-13.019933 14.99265 14.99265 0 0 0-12.62539-15.387194H202.75157c-9.863586 0-16.570824 5.129065-16.965367 13.80902a14.598107 14.598107 0 0 0 13.414476 14.598107h136.512028zM335.712707 259.558042h132.172051a29.590758 29.590758 0 0 0 8.285412 0 15.387194 15.387194 0 0 0 9.469042-15.781737 14.99265 14.99265 0 0 0-13.414477-11.836303H202.75157c-9.863586 0-16.570824 5.129065-16.965367 13.414476a14.598107 14.598107 0 0 0 13.80902 14.598107h136.117484z"  horiz-adv-x="1024" />

    
    <glyph glyph-name="sousuo" unicode="&#58915;" d="M1012.363636-86.109091l-200.145454 200.145455c167.563636 181.527273 165.236364 465.454545-13.963637 642.327272C619.054545 937.890909 323.490909 937.890909 139.636364 756.363636c-179.2-181.527273-179.2-477.090909 0-658.618181 90.763636-90.763636 209.454545-134.981818 330.472727-134.981819 109.381818 0 223.418182 41.890909 309.527273 121.018182l200.145454-200.145454c9.309091-9.309091 23.272727-9.309091 32.581818 0 9.309091 6.981818 9.309091 20.945455 0 30.254545zM768 130.327273c-162.909091-162.909091-430.545455-162.909091-593.454545 0s-162.909091 432.872727 0 593.454545c81.454545 81.454545 188.509091 121.018182 295.563636 121.018182S686.545455 805.236364 768 723.781818c160.581818-160.581818 160.581818-430.545455 0-593.454545z m-25.6 246.690909l-242.036364 65.163636 65.163637 246.690909c2.327273 11.636364-4.654545 25.6-16.290909 27.927273-11.636364 2.327273-25.6-4.654545-27.927273-16.290909L453.818182 453.818182 202.472727 521.309091c-11.636364 2.327273-25.6-4.654545-27.927272-16.290909-2.327273-11.636364 4.654545-25.6 16.290909-27.927273L442.181818 409.6l-65.163636-246.690909c-2.327273-11.636364 4.654545-25.6 16.290909-27.927273 11.636364-2.327273 25.6 4.654545 27.927273 16.290909l65.163636 246.690909 242.036364-65.163636c11.636364-2.327273 25.6 4.654545 27.927272 16.290909 4.654545 11.636364-2.327273 25.6-13.963636 27.927273z"  horiz-adv-x="1024" />

    
    <glyph glyph-name="Verification_code" unicode="&#59053;" d="M512-64.481338c-134.803195 0-388.856355 202.205305-388.856355 394.041448V692.49305c0 5.185093 2.592035 7.777127 5.185092 12.962219 2.592035 2.592035 7.777127 5.185093 12.96222 5.185093h20.739346c59.624982 2.592035 119.248941 15.554254 176.281889 36.293601 51.847855 20.739347 103.694687 46.662763 150.35745 77.771271l12.96222 7.777127h10.369161c2.592035 0 7.777127 0 10.369162-2.592035l12.96222-7.777127c46.662763-33.700543 98.510618-59.624982 150.357449-80.363305 57.031924-20.739347 116.656907-33.700543 176.281889-36.293601h20.739347c5.185093 0 7.777127-2.592035 12.962219-5.185093 5.185093-2.592035 5.185093-7.777127 5.185093-12.962219v-362.93294c-0.002047-189.244108-254.055207-388.857379-388.858402-388.857379z m329.231373 712.90366c-59.624982 5.185093-119.248941 18.146289-176.281889 38.885635-51.847855 20.739347-103.694687 46.662763-152.950507 75.179237-49.254797-31.108508-98.510618-57.031924-152.950508-75.179237-57.031924-20.739347-114.064872-36.293601-176.281889-38.885635v-318.862212c0-150.35745 220.351594-331.824431 329.231373-331.824431 77.771271 12.96222 150.35745 49.254797 204.79734 106.287745 69.994144 54.43989 114.064872 137.396253 124.434034 225.536686v318.862212z m-355.155812-404.41061c-7.777127-7.777127-15.554254-10.369162-25.923416-10.369162s-18.146289 2.592035-25.923416 10.369162L327.940984 350.299457c-12.96222 12.96222-12.96222 36.293601 0 49.254797 12.96222 12.96222 36.293601 12.96222 49.254797 0l80.363306-82.956363L662.356426 521.39523c12.96222 12.96222 36.293601 12.96222 49.254798 0 12.96222-12.96222 12.96222-36.293601 0-49.254797L486.075561 244.011712z"  horiz-adv-x="1024" />

    
    <glyph glyph-name="yingyong1" unicode="&#58916;" d="M847.3 764.9c25.3 0 45.8-20.6 45.8-45.8V49c0-25.3-20.6-45.8-45.8-45.8h-670c-25.3 0-45.8 20.6-45.8 45.8V719.1c0 25.3 20.6 45.8 45.8 45.8h670m0 67.2h-670c-62.4 0-113-50.6-113-113V49c0-62.4 50.6-113 113-113h670.1c62.4 0 113 50.6 113 113V719.1c0 62.4-50.7 113-113.1 113zM512.3 441.5c-111.7 0-202.6 90.9-202.6 202.6 0 18.6 15 33.6 33.6 33.6s33.6-15 33.6-33.6c0-74.7 60.8-135.4 135.4-135.4s135.4 60.8 135.4 135.4c0 18.6 15 33.6 33.6 33.6s33.6-15 33.6-33.6c0-111.7-90.9-202.6-202.6-202.6zM664.5 128.5H360.1c-18.6 0-33.6 15-33.6 33.6s15 33.6 33.6 33.6h304.4c18.6 0 33.6-15 33.6-33.6s-15-33.6-33.6-33.6z"  horiz-adv-x="1024" />

    
    <glyph glyph-name="canshu" unicode="&#58965;" d="M278.8 275.6V767.9h-46v-492.3c-54.6-10.7-95.9-59-95.9-116.7s41.3-105.9 95.9-116.7v-42h46v42c54.6 10.7 95.9 59 95.9 116.7 0 57.8-41.3 106-95.9 116.7z m-23-189.6c-40.2 0-72.9 32.7-72.9 72.9s32.7 72.9 72.9 72.9 72.9-32.7 72.9-72.9c0-40.1-32.7-72.9-72.9-72.9zM534.8 501.9v266h-46v-266.3c-54.2-11.1-95-59.1-95-116.5s40.9-105.4 95-116.5v-268.3h46v268c55 10.4 96.8 58.8 96.8 116.8s-41.7 106.4-96.8 116.8z m-22.1-189.7c-40.2 0-72.9 32.7-72.9 72.9s32.7 72.9 72.9 72.9 72.9-32.7 72.9-72.9-32.7-72.9-72.9-72.9zM887.2 608.1c0 57.8-41.5 106.2-96.3 116.7v42.9h-46v-43.1c-54.4-10.9-95.5-59-95.5-116.6 0-57.6 41.1-105.7 95.5-116.6V0h46V491.2c54.7 10.7 96.3 59 96.3 116.9z m-119-73c-40.2 0-72.9 32.7-72.9 72.9s32.7 72.9 72.9 72.9 72.9-32.7 72.9-72.9c0.1-40.2-32.7-72.9-72.9-72.9z"  horiz-adv-x="1024" />

    
    <glyph glyph-name="xiazai" unicode="&#58934;" d="M884.363636-128H139.636364c-74.472727 0-139.636364 65.163636-139.636364 139.636364V756.363636c0 74.472727 65.163636 139.636364 139.636364 139.636364h744.727272c74.472727 0 139.636364-65.163636 139.636364-139.636364v-744.727272c0-74.472727-65.163636-139.636364-139.636364-139.636364zM688.872727 467.781818h-55.854545c-13.963636 0-23.272727 9.309091-23.272727 23.272727V640c0 13.963636-9.309091 23.272727-23.272728 23.272727H437.527273c-13.963636 0-23.272727-9.309091-23.272728-23.272727v-153.6c0-13.963636-9.309091-23.272727-23.272727-23.272727H335.127273c-18.618182 0-27.927273-23.272727-13.963637-37.236364l176.872728-176.872727c4.654545-4.654545 9.309091-4.654545 13.963636-4.654546s9.309091 0 13.963636 4.654546l176.872728 176.872727c13.963636 13.963636 4.654545 41.890909-13.963637 41.890909zM283.927273 137.309091c0-18.618182 13.963636-32.581818 32.581818-32.581818h395.636364c18.618182 0 32.581818 13.963636 32.581818 32.581818 0 18.618182-13.963636 32.581818-32.581818 32.581818H316.509091c-18.618182 0-32.581818-13.963636-32.581818-32.581818z"  horiz-adv-x="1024" />

    
    <glyph glyph-name="denglu" unicode="&#58964;" d="M832 0H298.666667a104.533333 104.533333 0 0 0-106.666667 102.4v101.973333h53.333333v-102.826666A52.48 52.48 0 0 1 298.666667 50.346667h533.333333a52.48 52.48 0 0 1 53.333333 51.2V666.453333a52.48 52.48 0 0 1-53.333333 51.2H298.666667a52.48 52.48 0 0 1-53.333334-51.2v-102.826666H192V666.453333A104.533333 104.533333 0 0 0 298.666667 768h533.333333A104.533333 104.533333 0 0 0 938.666667 666.453333v-564.906666A104.533333 104.533333 0 0 0 832 0zM601.173333 544a25.6 25.6 0 0 0 0 36.693333 27.733333 27.733333 0 0 0 37.546667 0l184.32-177.066666a30.293333 30.293333 0 0 0 0-39.253334L640 187.306667a27.733333 27.733333 0 0 0-37.546667 0 25.173333 25.173333 0 0 0 0 36.266666l139.946667 134.826667H112.213333a25.6 25.6 0 1 0 0 51.2h628.906667z"  horiz-adv-x="1024" />

    
    <glyph glyph-name="canshu1" unicode="&#58902;" d="M883.2 634.4c-26.9 15.8-58.1 20.9-89.2 14.9-13.5 20-28.8 39-46.5 56.7C626.3 827.2 445.1 853.2 298.7 782.1c-51.1 44.6-129.6 42.3-178.4-6.5s-51.1-127.3-6.5-178.4C42.7 450.9 68.7 269.79999999999995 190 148.5c17.7-17.7 36.7-33 56.7-46.5-6-31.1-0.9-62.2 14.9-89.2 17.7-30.7 46-52.5 79.5-61.8 33.9-8.8 69.2-4.2 99.9 13.5 10.2 5.6 19.5 13 27.4 20.9 13.9 13.9 24.2 30.7 30.7 49.2 91.1 6.5 179.8 45.1 248.6 113.8S854.9 306 861.4 397c18.6 6.5 35.3 16.7 49.3 30.7 7.9 7.9 15.3 17.2 20.9 27.4 17.7 30.7 22.3 66 13.5 99.9-9.4 33.4-31.2 61.8-61.9 79.4z m-731.8 26.5c-8.4 23.2-3.3 49.7 15.3 68.3s45.1 23.7 68.3 15.3c8.8-3.3 17.7-8.4 24.6-15.3 9.8-9.8 15.8-22.3 18.1-34.8 3.7-20.4-2.3-42.3-18.1-58.1s-37.6-21.8-58.1-18.1c-12.5 2.3-25.1 8.4-34.8 18.1-6.9 6.9-12 15.8-15.3 24.6zM439 61.200000000000045c-2.3-9.8-7.4-18.6-13.9-25.1-15.3-19-41.4-28.3-66.9-21.4-16.7 4.6-31.1 15.3-40 30.7-3.7 6.5-6 13.5-7 20.9-2.3 8.8-1.9 19.5 0.5 29.3 2.8 11.2 8.8 20.9 17.2 29.3 0.9 0.9 2.3 2.3 4.2 3.3 2.8 2.8 6 5.1 9.3 7.4 14.9 8.4 33 10.7 49.7 6 21.4-5.6 37.2-21.4 44.6-40.9 5.1-11.6 6-25.6 2.3-39.5zM701.1 195c-54.8-54.8-124.5-86.4-196.5-93.4-8.8 47.8-44.6 90.1-95.3 103.6-33.9 8.8-69.2 4.2-99.9-13.5-13.5-7.9-25.1-17.7-34.4-28.8-13.9 9.3-26.5 20-38.6 32.1-98.5 98.5-121.7 244.3-68.3 364.6 46-17.2 100.8-7 138 30.2s47.4 92 30.2 138C456.6 781.2 602.5 758 701 659.5c12.1-12.1 22.8-24.6 32.1-38.6-11.2-9.3-20.9-20.9-28.8-34.4-17.7-30.7-22.3-66-13.5-99.9 6-22.8 17.7-42.7 33.5-58.5 19-19 43.7-31.6 70.2-36.7-7-71.9-38.6-141.6-93.4-196.4z m180.2 342.8c7-25.5-2.3-51.6-21.4-66.9-6.5-6.5-15.3-11.6-25.1-13.9-13.9-3.7-27.9-2.8-39.5 2.3-19.5 7.4-35.3 23.2-40.9 44.6-4.6 16.7-2.3 34.8 6 49.7 2.3 3.3 4.6 6.5 7.4 9.3 8.4 10.2 19.5 17.7 32.5 21.4 9.8 2.3 20.4 2.8 29.3 0.5 7.4-0.9 14.4-3.3 20.9-7 15.5-8.9 26.2-23.3 30.8-40z"  horiz-adv-x="1024" />

    
    <glyph glyph-name="qiyong1" unicode="&#58880;" d="M512 896A512 512 0 1 1 1024 384 512.68266667 512.68266667 0 0 1 512 896z m0-955.73333333A443.73333333 443.73333333 0 1 0 955.73333333 384 444.416 444.416 0 0 0 512-59.73333333000005zM375.46666667 588.8h68.26666666v-409.6H375.46666667zM580.26666667 588.8h68.26666666v-409.6H580.26666667z"  horiz-adv-x="1024" />

    
    <glyph glyph-name="rengongfuwu" unicode="&#58905;" d="M373.953924 303.931277c-33.786802 0-61.176103-27.589223-61.176103-61.575947 0-34.086685 27.28934-61.675908 61.176103-61.675908 25.889887 0 47.781335 16.393596 56.5779 39.184694L386.0492 242.455291l44.382663 22.291292c-8.796564 22.991019-30.688012 39.184693-56.477939 39.184694zM658.942601 180.4795c25.789926 0 47.781335 16.293635 56.577899 39.284655l-44.382663 22.391253 44.382663 22.391253c-8.796564 22.891058-30.787973 39.184693-56.577899 39.184694-33.786802 0-61.176103-27.589223-61.176104-61.575947 0-34.086685 27.389301-61.675908 61.176104-61.675908z m276.491995 144.74346c0.299883 9.696212 0.299883 19.492386 0.099961 29.38852 2.598985 133.547833-36.785631 246.203827-114.055447 325.672784-36.885592 37.885201-81.668098 66.973838-133.048028 86.766107-7.996876 72.171808-85.666537 128.949629-180.129637 128.949629s-172.132761-56.777821-180.129637-128.949629c-51.37993-19.792269-96.162437-48.880906-132.948067-86.766107-77.369777-79.468957-116.754393-191.825068-114.155408-324.973057-0.199922-12.59508-0.199922-24.390472 0.199922-35.985943-19.992191-20.292073-35.68606-50.980086-24.290512-94.063257 8.496681-31.987505 31.987505-55.978134 60.776259-66.474034 14.594299-9.096447 31.887544-14.394377 50.28036-14.494338 36.68567-161.936743 170.133542-271.793831 344.265521-271.79383 173.832097 0 307.180008 110.15697 343.765716 272.193674 1.09957-0.299883 2.299102-0.399844 3.498634-0.399844 22.991019 0 44.08278 8.096837 60.676298 21.491605 21.791488 12.395158 38.78485 33.286997 45.782116 59.476767 12.59508 47.481453-7.796954 79.868801-30.588051 99.960953zM508.301445 863.212807c70.372511 0 129.349473-35.985943 144.443576-84.067161-43.882858 12.59508-91.864116 19.092542-143.244045 19.092542H507.001952c-51.37993 0-99.361187-6.497462-143.244045-19.092542 15.194065 48.081218 74.171027 84.067161 144.543538 84.067161z m4.598204-957.825849h-1.199532c-189.026162 0-321.07458 136.246779-321.07458 331.670441l-0.299883 18.592738c-0.199922 7.996876 0.99961 30.38813 2.299102 51.779773C295.684498 344.215541 338.467786 449.774307 340.367044 454.472472c3.298711 8.39672-0.699727 17.992971-9.096447 21.391644s-17.79305-0.699727-21.191722-9.196408c-0.399844-0.99961-40.384225-98.861382-131.948457-129.549395-2.698946 1.899258-20.791878 20.591956-45.282312 14.094494 0 1.299492 0 2.598985 0.099961 3.998439-2.499024 119.553299 31.787583 219.31433 99.161265 288.58727 64.974619 66.873877 160.037485 102.260055 274.89262 102.260055h1.199532l0.299883-19.292464h1.299492l-0.299883 19.292464c114.855135 0 209.918001-35.386177 274.89262-102.260055C851.867239 574.525576 886.153846 474.764545 883.754783 354.711441c0-0.899649 0-1.799297 0.099961-2.798907-34.486529 0-40.384225-30.887934-40.084342-32.087466-0.099961-0.599766-0.299883-1.299492-0.399844-1.899258-0.899649-4.798126-1.799297-17.493167-2.798906-33.386958-0.599766-0.499805-1.09957-0.99961-1.599376-1.599375-49.780554 49.480672-114.655213 63.275283-177.630613 76.770011-32.987114 6.997267-67.073799 14.294416-99.261226 26.589614-114.155408 43.682936-177.130808 147.842249-177.730574 148.841859-4.598204 7.796954-14.594299 10.295978-22.391253 5.697774-7.696993-4.698165-10.295978-14.69426-5.697774-22.491215 2.798907-4.698165 69.073018-114.955096 194.12417-162.736431 34.486529-13.194846 69.872706-20.691917 103.959391-27.989066 68.573214-14.594299 133.347911-28.488872 177.430691-86.266303 0.499805-0.599766 0.99961-1.199531 1.499414-1.699336l-0.099961-2.898867c0-21.491605-1.599375-42.283483-4.698165-62.375635-56.777821-91.364311-150.841078-151.240922-267.395548-164.135884-8.696603 11.595471-26.389692 19.492386-46.981648 19.492385-29.188598 0-52.879344-15.893791-52.879344-35.486138s23.690746-35.486138 52.879344-35.486138c26.089809 0 47.681374 12.795002 51.879734 29.588442 37.585318 4.398282 73.4713 13.394768 107.058181 27.089418 47.981257 19.592347 90.364701 47.981257 125.750878 84.666927 5.697774 5.897696 11.095666 11.895353 16.393597 18.092933-42.083561-129.449434-154.939477-212.816868-302.281921-212.816869z"  horiz-adv-x="1024" />

    
    <glyph glyph-name="shouqijiantouxiao" unicode="&#59655;" d="M264.789333 268.373333a42.965333 42.965333 0 0 0-60.288 0 41.856 41.856 0 0 0 0 59.648l247.210667 244.608a85.930667 85.930667 0 0 0 120.576 0l247.210667-244.608a41.856 41.856 0 0 0 0-59.648 42.965333 42.965333 0 0 0-60.288 0L512 512.981333 264.789333 268.373333zM512-128c282.752 0 512 229.248 512 512S794.752 896 512 896 0 666.752 0 384s229.248-512 512-512z m0 85.333333C276.352-42.666667 85.333333 148.352 85.333333 384S276.352 810.666667 512 810.666667s426.666667-191.018667 426.666667-426.666667-191.018667-426.666667-426.666667-426.666667z"  horiz-adv-x="1024" />

    
    <glyph glyph-name="messagewarn" unicode="&#59525;" d="M368 384m-32 0a32 32 0 1 1 64 0 32 32 0 1 1-64 0ZM512 384m-32 0a32 32 0 1 1 64 0 32 32 0 1 1-64 0ZM656 384m-32 0a32 32 0 1 1 64 0 32 32 0 1 1-64 0ZM768 288c-88 0-160-72-160-160s72-160 160-160 160 72 160 160-70.4 160-160 160z m0-288c-70.4 0-128 57.6-128 128s57.6 128 128 128 128-57.6 128-128-57.6-128-128-128zM756.8 208h24v-96h-24zM352 112c49.6-28.8 104-44.8 161.6-44.8 16 0 32 1.6 48 4.8V112c-16-3.2-32-4.8-48-4.8-52.8 0-102.4 14.4-147.2 43.2-3.2 1.6-6.4 3.2-11.2 3.2-1.6 0-3.2 0-6.4-1.6l-104-32 33.6 105.6c1.6 4.8 1.6 11.2-1.6 16-25.6 43.2-38.4 91.2-38.4 140.8 0 152 123.2 275.2 275.2 275.2S788.8 536 788.8 384c0-16-1.6-32-4.8-48h40c3.2 16 4.8 32 4.8 48 0 174.4-142.4 316.8-316.8 316.8S196.8 558.4 196.8 384c0-54.4 14.4-107.2 40-153.6l-30.4-97.6-22.4-72 72 22.4 96 28.8zM768 64m-16 0a16 16 0 1 1 32 0 16 16 0 1 1-32 0Z"  horiz-adv-x="1024" />

    
    <glyph glyph-name="Group-1" unicode="&#59012;" d="M753.6 284.48a32 32 0 1 0 28.8-56.96l-256-128a32 32 0 0 0-28.8 0l-256 128a32 32 0 0 0 28.8 56.96L512 163.84zM753.6 572.48a32 32 0 1 0 28.8-56.96l-256-128a32 32 0 0 0-28.8 0l-256 128a32 32 0 1 0 28.8 56.96L512 451.84z"  horiz-adv-x="1024" />

    
    <glyph glyph-name="Group-2" unicode="&#59013;" d="M270.4 419.52a32 32 0 1 0-28.8 56.96l256 128a32 32 0 0 0 28.8 0l256-128a32 32 0 0 0-28.8-56.96L512 540.16zM270.4 131.52a32 32 0 0 0-28.8 56.96l256 128a32 32 0 0 0 28.8 0l256-128a32 32 0 0 0-28.8-56.96L512 252.16z"  horiz-adv-x="1024" />

    
    <glyph glyph-name="Group-" unicode="&#59042;" d="M512 750.92069136a578.53724445 578.53724445 0 0 0 505.35537778-310.20373333 36.40888889 36.40888889 0 0 0 0-36.4088889A578.53724445 578.53724445 0 0 0 512 95.56069135999996a578.53724445 578.53724445 0 0 0-505.35537778 310.20373333 36.40888889 36.40888889 0 0 0 0 36.40888889A578.53724445 578.53724445 0 0 0 512 750.92069136z m0-72.81777778a503.17084445 503.17084445 0 0 1-431.44533333-254.86222222A503.17084445 503.17084445 0 0 1 512 168.37846912999998a503.17084445 503.17084445 0 0 1 431.44533333 254.86222223A503.17084445 503.17084445 0 0 1 512 678.10291358zM657.63555555 423.24069136a145.63555555 145.63555555 0 1 0-145.63555555 145.63555555 145.63555555 145.63555555 0 0 0 145.63555555-145.63555555"  horiz-adv-x="1024" />

    
    <glyph glyph-name="daichuli" unicode="&#58999;" d="M512-128C229.376-128 0 101.376 0 384S229.376 896 512 896s512-229.376 512-512-229.376-512-512-512z m0 935.936c-233.984 0-424.448-189.952-424.448-424.448S277.504-40.96 512-40.96s424.448 189.952 424.448 424.448-190.464 424.448-424.448 424.448z m227.328-522.24H471.04c-31.232 0-57.344 25.088-57.344 57.344V611.328c0 31.232 25.088 57.344 57.344 57.344 31.744 0 57.344-25.088 57.344-57.344V399.36h211.968c31.232 0 57.344-25.088 57.344-57.344-0.512-31.744-27.136-56.32-58.368-56.32z"  horiz-adv-x="1024" />

    
    <glyph glyph-name="weiduxiaoxi" unicode="&#58883;" d="M933.644 745.377H90.44c-49.838 0-90.356-40.55-90.356-90.356v-542.038c0-49.838 40.518-90.356 90.356-90.356h843.204c49.774 0 90.292 40.518 90.292 90.356V655.02c-0.001 49.806-40.519 90.356-90.292 90.356zM60.31 112.983V643.468l265.987-265.987h-0.258L60.342 111.818c0 0.388-0.032 0.776-0.032 1.165z m43.527 572.136h816.408L512.025 276.93 103.838 685.12z m264.92-350.13l143.269-143.237 144.012 144.014L908.92 82.821H116.59l252.168 252.168z m330.712 42.492h-1.748l266.02 265.987v-530.226L699.469 377.48z"  horiz-adv-x="1024" />

    
    <glyph glyph-name="shouji" unicode="&#58914;" d="M512.030838-32.006939c25.595683 0 47.996531 22.400848 47.996531 48.008866s-22.425519 47.996531-47.996531 47.996531-48.008866-22.400848-48.008866-47.996531 22.400848-48.008866 48.008866-48.008866zM752.001156 896H271.998844C201.601465 896 143.99576 838.40663 143.99576 767.996916v-767.993832c0-70.397379 57.605705-128.003084 128.003084-128.003084H752.001156c70.397379 0 128.003084 57.605705 128.003084 128.003084v767.993832C880.00424 838.40663 822.398535 896 752.001156 896z m63.995375-895.996916a64.143397 64.143397 0 0 0-63.995375-63.970704H271.998844a64.143397 64.143397 0 0 0-63.995375 63.995374v95.968391h607.993062z m0 160.000771H208.003469V672.003855h607.993062z m0 576.05705H208.003469v31.936011a64.143397 64.143397 0 0 0 63.995375 64.00771H752.001156a64.143397 64.143397 0 0 0 63.995375-64.00771z m0 0"  horiz-adv-x="1024" />

    
    <glyph glyph-name="jiaoseshouquan" unicode="&#58944;" d="M819.218448 318.888365a32.383215 32.383215 0 0 1-9.714964 44.688837 485.748223 485.748223 0 0 1-122.408552 56.994458 259.065719 259.065719 0 1 1-284.972291 0A488.986545 488.986545 0 0 1 56.269906-46.394299a32.383215 32.383215 0 0 1 64.76643 0A423.57245 423.57245 0 0 0 774.529612 308.525736a32.383215 32.383215 0 0 1 44.688836 10.362629zM352.25249 632.357885a194.299289 194.299289 0 1 0 194.299289-194.299289 194.299289 194.299289 0 0 0-194.299289 194.299289zM898.233493 61.117975V133.656376h17.486936a32.383215 32.383215 0 0 1 0 64.76643H898.233493v50.517815h17.486936a32.383215 32.383215 0 0 1 0 64.76643H898.233493v64.76643a32.383215 32.383215 0 1 1-64.76643 0v-315.412513a97.797309 97.797309 0 1 1 64.76643 0z m-32.383215-124.99921a33.030879 33.030879 0 1 0 33.030879 33.03088 33.030879 33.030879 0 0 0-31.087886-32.383215z"  horiz-adv-x="1024" />

    
    <glyph glyph-name="lianjie" unicode="&#58922;" d="M936.008656 807.820922A299.519584 299.519584 0 0 1 722.960063 895.998578a299.23514 299.23514 0 0 1-213.048593-88.177656L341.520593 639.998933l76.799893-76.799893 168.106433 167.821989a192.853065 192.853065 0 0 0 272.781843-272.781843l-168.675321-168.675322L768.186667 213.332859l168.675321 168.675322A301.795136 301.795136 0 0 1 936.008656 807.820922zM437.947125 36.977549a192.853065 192.853065 0 0 0-272.781843 272.781843l168.675321 168.675321L256.187378 554.665719l-167.821989-168.106434a301.510692 301.510692 0 1 1 426.666074-426.666074L682.853452 127.999644l-76.799893 76.799894zM300.162428 248.632366l347.761295 347.761295 76.629226-76.629227L376.791655 172.003139z"  horiz-adv-x="1024" />

    
    </font>
</defs>
</svg>
